<svg width="1076" height="627" viewBox="0 0 1076 627" fill="none" xmlns="http://www.w3.org/2000/svg">
<rect width="1076" height="627" fill="#F5F5F5"/>
<g filter="url(#filter0_d_0_1)">
<g clip-path="url(#clip0_0_1)">
<rect x="2" y="1.33905" width="1050" height="600" rx="12" fill="#FFFDF1"/>
<rect x="2" y="403" width="151" height="119" rx="2" fill="#FFF6C6"/>
<rect x="182" y="403" width="526" height="119" rx="2" fill="#FFF6C6"/>
<rect x="969" y="403" width="126" height="119" rx="2" fill="#FFF6C6"/>
<path d="M301.148 492V476.727H303.494V492H301.148ZM302.341 474.182C301.884 474.182 301.489 474.026 301.158 473.714C300.833 473.403 300.67 473.028 300.67 472.591C300.67 472.153 300.833 471.779 301.158 471.467C301.489 471.156 301.884 471 302.341 471C302.798 471 303.189 471.156 303.514 471.467C303.846 471.779 304.011 472.153 304.011 472.591C304.011 473.028 303.846 473.403 303.514 473.714C303.189 474.026 302.798 474.182 302.341 474.182ZM314.339 482.812V492H311.992V476.727H314.259V479.114H314.458C314.816 478.338 315.36 477.715 316.089 477.244C316.818 476.767 317.759 476.528 318.913 476.528C319.947 476.528 320.852 476.741 321.627 477.165C322.403 477.582 323.006 478.219 323.437 479.074C323.868 479.922 324.083 480.996 324.083 482.295V492H321.737V482.455C321.737 481.255 321.425 480.32 320.802 479.651C320.179 478.974 319.324 478.636 318.237 478.636C317.488 478.636 316.818 478.799 316.228 479.124C315.645 479.448 315.184 479.922 314.846 480.545C314.508 481.169 314.339 481.924 314.339 482.812ZM339.213 476.727V478.716H331.298V476.727H339.213ZM333.605 473.068H335.952V487.625C335.952 488.288 336.048 488.785 336.24 489.116C336.439 489.441 336.691 489.66 336.996 489.773C337.307 489.879 337.636 489.932 337.98 489.932C338.239 489.932 338.451 489.919 338.617 489.892C338.782 489.859 338.915 489.832 339.014 489.812L339.492 491.92C339.333 491.98 339.11 492.04 338.825 492.099C338.54 492.166 338.179 492.199 337.742 492.199C337.079 492.199 336.429 492.056 335.793 491.771C335.163 491.486 334.639 491.052 334.222 490.469C333.811 489.885 333.605 489.15 333.605 488.261V473.068ZM353.182 492.318C351.711 492.318 350.441 491.993 349.374 491.344C348.314 490.688 347.495 489.773 346.918 488.599C346.348 487.42 346.063 486.047 346.063 484.483C346.063 482.919 346.348 481.54 346.918 480.347C347.495 479.147 348.297 478.212 349.324 477.543C350.359 476.866 351.565 476.528 352.944 476.528C353.739 476.528 354.525 476.661 355.3 476.926C356.076 477.191 356.782 477.622 357.418 478.219C358.055 478.809 358.562 479.591 358.939 480.565C359.317 481.54 359.506 482.74 359.506 484.165V485.159H347.734V483.131H357.12C357.12 482.269 356.948 481.5 356.603 480.824C356.265 480.148 355.781 479.614 355.151 479.223C354.528 478.832 353.792 478.636 352.944 478.636C352.009 478.636 351.2 478.868 350.518 479.332C349.841 479.79 349.321 480.386 348.957 481.122C348.592 481.858 348.41 482.647 348.41 483.489V484.841C348.41 485.994 348.609 486.972 349.006 487.774C349.411 488.57 349.971 489.176 350.687 489.594C351.403 490.005 352.234 490.21 353.182 490.21C353.799 490.21 354.356 490.124 354.853 489.952C355.357 489.773 355.791 489.508 356.155 489.156C356.52 488.798 356.802 488.354 357.001 487.824L359.268 488.46C359.029 489.229 358.628 489.905 358.064 490.489C357.501 491.065 356.805 491.516 355.976 491.841C355.148 492.159 354.216 492.318 353.182 492.318ZM367.276 492V476.727H369.543V479.034H369.702C369.98 478.278 370.484 477.665 371.213 477.195C371.943 476.724 372.764 476.489 373.679 476.489C373.852 476.489 374.067 476.492 374.326 476.499C374.584 476.505 374.78 476.515 374.912 476.528V478.915C374.833 478.895 374.65 478.865 374.365 478.825C374.087 478.779 373.792 478.756 373.48 478.756C372.738 478.756 372.075 478.911 371.492 479.223C370.915 479.528 370.458 479.952 370.12 480.496C369.788 481.033 369.622 481.646 369.622 482.335V492H367.276ZM381.894 492V476.727H384.24V492H381.894ZM383.087 474.182C382.63 474.182 382.235 474.026 381.904 473.714C381.579 473.403 381.417 473.028 381.417 472.591C381.417 472.153 381.579 471.779 381.904 471.467C382.235 471.156 382.63 471 383.087 471C383.544 471 383.935 471.156 384.26 471.467C384.592 471.779 384.757 472.153 384.757 472.591C384.757 473.028 384.592 473.403 384.26 473.714C383.935 474.026 383.544 474.182 383.087 474.182ZM398.943 492.318C397.564 492.318 396.354 491.99 395.314 491.334C394.28 490.678 393.471 489.759 392.887 488.58C392.311 487.4 392.022 486.021 392.022 484.443C392.022 482.852 392.311 481.464 392.887 480.277C393.471 479.09 394.28 478.169 395.314 477.513C396.354 476.857 397.564 476.528 398.943 476.528C400.322 476.528 401.528 476.857 402.562 477.513C403.603 478.169 404.412 479.09 404.988 480.277C405.572 481.464 405.863 482.852 405.863 484.443C405.863 486.021 405.572 487.4 404.988 488.58C404.412 489.759 403.603 490.678 402.562 491.334C401.528 491.99 400.322 492.318 398.943 492.318ZM398.943 490.21C399.99 490.21 400.852 489.942 401.528 489.405C402.204 488.868 402.705 488.162 403.03 487.287C403.354 486.412 403.517 485.464 403.517 484.443C403.517 483.422 403.354 482.471 403.03 481.589C402.705 480.708 402.204 479.995 401.528 479.452C400.852 478.908 399.99 478.636 398.943 478.636C397.896 478.636 397.034 478.908 396.358 479.452C395.682 479.995 395.181 480.708 394.856 481.589C394.531 482.471 394.369 483.422 394.369 484.443C394.369 485.464 394.531 486.412 394.856 487.287C395.181 488.162 395.682 488.868 396.358 489.405C397.034 489.942 397.896 490.21 398.943 490.21ZM413.645 492V476.727H415.912V479.034H416.072C416.35 478.278 416.854 477.665 417.583 477.195C418.312 476.724 419.134 476.489 420.049 476.489C420.221 476.489 420.437 476.492 420.695 476.499C420.954 476.505 421.149 476.515 421.282 476.528V478.915C421.202 478.895 421.02 478.865 420.735 478.825C420.456 478.779 420.161 478.756 419.85 478.756C419.108 478.756 418.445 478.911 417.861 479.223C417.285 479.528 416.827 479.952 416.489 480.496C416.158 481.033 415.992 481.646 415.992 482.335V492H413.645ZM433.566 492.318C432.293 492.318 431.169 491.997 430.195 491.354C429.22 490.704 428.458 489.789 427.908 488.609C427.358 487.423 427.083 486.021 427.083 484.403C427.083 482.799 427.358 481.407 427.908 480.227C428.458 479.047 429.224 478.136 430.205 477.493C431.186 476.85 432.319 476.528 433.605 476.528C434.6 476.528 435.385 476.694 435.962 477.026C436.545 477.35 436.989 477.722 437.294 478.139C437.606 478.55 437.848 478.888 438.02 479.153H438.219V471.636H440.566V492H438.299V489.653H438.02C437.848 489.932 437.602 490.283 437.284 490.707C436.966 491.125 436.512 491.5 435.922 491.831C435.332 492.156 434.547 492.318 433.566 492.318ZM433.884 490.21C434.825 490.21 435.62 489.965 436.27 489.474C436.92 488.977 437.414 488.291 437.752 487.416C438.09 486.535 438.259 485.517 438.259 484.364C438.259 483.223 438.093 482.226 437.762 481.371C437.43 480.509 436.94 479.839 436.29 479.362C435.64 478.878 434.838 478.636 433.884 478.636C432.889 478.636 432.061 478.892 431.398 479.402C430.742 479.906 430.248 480.592 429.916 481.46C429.592 482.322 429.429 483.29 429.429 484.364C429.429 485.451 429.595 486.438 429.926 487.327C430.264 488.208 430.762 488.911 431.418 489.435C432.081 489.952 432.903 490.21 433.884 490.21ZM455.793 492.318C454.321 492.318 453.052 491.993 451.984 491.344C450.924 490.688 450.105 489.773 449.528 488.599C448.958 487.42 448.673 486.047 448.673 484.483C448.673 482.919 448.958 481.54 449.528 480.347C450.105 479.147 450.907 478.212 451.935 477.543C452.969 476.866 454.175 476.528 455.554 476.528C456.349 476.528 457.135 476.661 457.91 476.926C458.686 477.191 459.392 477.622 460.028 478.219C460.665 478.809 461.172 479.591 461.55 480.565C461.927 481.54 462.116 482.74 462.116 484.165V485.159H450.344V483.131H459.73C459.73 482.269 459.558 481.5 459.213 480.824C458.875 480.148 458.391 479.614 457.761 479.223C457.138 478.832 456.402 478.636 455.554 478.636C454.619 478.636 453.811 478.868 453.128 479.332C452.452 479.79 451.931 480.386 451.567 481.122C451.202 481.858 451.02 482.647 451.02 483.489V484.841C451.02 485.994 451.219 486.972 451.616 487.774C452.021 488.57 452.581 489.176 453.297 489.594C454.013 490.005 454.845 490.21 455.793 490.21C456.409 490.21 456.966 490.124 457.463 489.952C457.967 489.773 458.401 489.508 458.766 489.156C459.13 488.798 459.412 488.354 459.611 487.824L461.878 488.46C461.639 489.229 461.238 489.905 460.675 490.489C460.111 491.065 459.415 491.516 458.587 491.841C457.758 492.159 456.827 492.318 455.793 492.318ZM480.704 480.148L478.596 480.744C478.464 480.393 478.268 480.052 478.01 479.72C477.758 479.382 477.413 479.104 476.975 478.885C476.538 478.666 475.978 478.557 475.295 478.557C474.36 478.557 473.582 478.772 472.958 479.203C472.342 479.627 472.034 480.168 472.034 480.824C472.034 481.407 472.246 481.868 472.67 482.206C473.094 482.544 473.757 482.826 474.659 483.051L476.926 483.608C478.291 483.939 479.309 484.446 479.978 485.129C480.648 485.805 480.983 486.677 480.983 487.744C480.983 488.619 480.731 489.402 480.227 490.091C479.73 490.78 479.034 491.324 478.139 491.722C477.244 492.119 476.203 492.318 475.017 492.318C473.459 492.318 472.17 491.98 471.149 491.304C470.128 490.628 469.482 489.64 469.21 488.341L471.437 487.784C471.649 488.606 472.05 489.223 472.64 489.634C473.237 490.045 474.016 490.25 474.977 490.25C476.071 490.25 476.939 490.018 477.582 489.554C478.232 489.083 478.556 488.52 478.556 487.864C478.556 487.333 478.371 486.889 478 486.531C477.628 486.167 477.058 485.895 476.289 485.716L473.744 485.119C472.345 484.788 471.318 484.274 470.662 483.578C470.012 482.875 469.687 481.997 469.687 480.943C469.687 480.081 469.929 479.319 470.413 478.656C470.904 477.993 471.57 477.473 472.412 477.095C473.26 476.717 474.221 476.528 475.295 476.528C476.806 476.528 477.993 476.86 478.855 477.523C479.723 478.186 480.34 479.061 480.704 480.148ZM488.715 492V476.727H491.062V492H488.715ZM489.908 474.182C489.451 474.182 489.056 474.026 488.725 473.714C488.4 473.403 488.238 473.028 488.238 472.591C488.238 472.153 488.4 471.779 488.725 471.467C489.056 471.156 489.451 471 489.908 471C490.365 471 490.757 471.156 491.081 471.467C491.413 471.779 491.579 472.153 491.579 472.591C491.579 473.028 491.413 473.403 491.081 473.714C490.757 474.026 490.365 474.182 489.908 474.182ZM505.724 498.045C504.591 498.045 503.616 497.9 502.801 497.608C501.986 497.323 501.306 496.945 500.763 496.474C500.226 496.01 499.798 495.513 499.48 494.983L501.349 493.67C501.561 493.949 501.83 494.267 502.155 494.625C502.479 494.99 502.924 495.304 503.487 495.57C504.057 495.841 504.803 495.977 505.724 495.977C506.957 495.977 507.975 495.679 508.777 495.082C509.579 494.486 509.98 493.551 509.98 492.278V489.176H509.781C509.609 489.455 509.363 489.799 509.045 490.21C508.734 490.615 508.283 490.976 507.693 491.294C507.11 491.606 506.321 491.761 505.326 491.761C504.094 491.761 502.987 491.47 502.005 490.886C501.031 490.303 500.259 489.455 499.689 488.341C499.125 487.227 498.844 485.875 498.844 484.284C498.844 482.72 499.119 481.357 499.669 480.197C500.219 479.031 500.985 478.129 501.966 477.493C502.947 476.85 504.08 476.528 505.366 476.528C506.361 476.528 507.149 476.694 507.733 477.026C508.323 477.35 508.773 477.722 509.085 478.139C509.403 478.55 509.648 478.888 509.821 479.153H510.059V476.727H512.326V492.438C512.326 493.75 512.028 494.817 511.432 495.639C510.842 496.468 510.046 497.074 509.045 497.459C508.051 497.85 506.944 498.045 505.724 498.045ZM505.645 489.653C506.586 489.653 507.381 489.438 508.031 489.007C508.681 488.576 509.174 487.956 509.513 487.148C509.851 486.339 510.02 485.371 510.02 484.244C510.02 483.144 509.854 482.173 509.523 481.331C509.191 480.489 508.701 479.83 508.051 479.352C507.401 478.875 506.599 478.636 505.645 478.636C504.65 478.636 503.822 478.888 503.159 479.392C502.503 479.896 502.009 480.572 501.677 481.42C501.353 482.269 501.19 483.21 501.19 484.244C501.19 485.305 501.356 486.243 501.687 487.058C502.025 487.867 502.523 488.503 503.179 488.967C503.842 489.425 504.664 489.653 505.645 489.653ZM523.169 482.812V492H520.822V476.727H523.089V479.114H523.288C523.646 478.338 524.189 477.715 524.919 477.244C525.648 476.767 526.589 476.528 527.742 476.528C528.776 476.528 529.681 476.741 530.457 477.165C531.232 477.582 531.836 478.219 532.267 479.074C532.697 479.922 532.913 480.996 532.913 482.295V492H530.566V482.455C530.566 481.255 530.255 480.32 529.632 479.651C529.008 478.974 528.153 478.636 527.066 478.636C526.317 478.636 525.648 478.799 525.058 479.124C524.474 479.448 524.014 479.922 523.676 480.545C523.338 481.169 523.169 481.924 523.169 482.812ZM547.804 492.318C546.333 492.318 545.063 491.993 543.996 491.344C542.935 490.688 542.117 489.773 541.54 488.599C540.97 487.42 540.685 486.047 540.685 484.483C540.685 482.919 540.97 481.54 541.54 480.347C542.117 479.147 542.919 478.212 543.946 477.543C544.98 476.866 546.187 476.528 547.566 476.528C548.361 476.528 549.147 476.661 549.922 476.926C550.698 477.191 551.404 477.622 552.04 478.219C552.676 478.809 553.184 479.591 553.561 480.565C553.939 481.54 554.128 482.74 554.128 484.165V485.159H542.355V483.131H551.742C551.742 482.269 551.569 481.5 551.225 480.824C550.887 480.148 550.403 479.614 549.773 479.223C549.15 478.832 548.414 478.636 547.566 478.636C546.631 478.636 545.822 478.868 545.139 479.332C544.463 479.79 543.943 480.386 543.578 481.122C543.214 481.858 543.032 482.647 543.032 483.489V484.841C543.032 485.994 543.23 486.972 543.628 487.774C544.032 488.57 544.593 489.176 545.309 489.594C546.024 490.005 546.856 490.21 547.804 490.21C548.421 490.21 548.978 490.124 549.475 489.952C549.979 489.773 550.413 489.508 550.777 489.156C551.142 488.798 551.424 488.354 551.622 487.824L553.889 488.46C553.651 489.229 553.25 489.905 552.686 490.489C552.123 491.065 551.427 491.516 550.598 491.841C549.77 492.159 548.838 492.318 547.804 492.318ZM561.898 492V476.727H564.165V479.034H564.324C564.602 478.278 565.106 477.665 565.835 477.195C566.564 476.724 567.386 476.489 568.301 476.489C568.473 476.489 568.689 476.492 568.947 476.499C569.206 476.505 569.402 476.515 569.534 476.528V478.915C569.455 478.895 569.272 478.865 568.987 478.825C568.709 478.779 568.414 478.756 568.102 478.756C567.36 478.756 566.697 478.911 566.114 479.223C565.537 479.528 565.08 479.952 564.741 480.496C564.41 481.033 564.244 481.646 564.244 482.335V492H561.898ZM587.334 480.148L585.226 480.744C585.093 480.393 584.898 480.052 584.639 479.72C584.387 479.382 584.043 479.104 583.605 478.885C583.168 478.666 582.608 478.557 581.925 478.557C580.99 478.557 580.211 478.772 579.588 479.203C578.972 479.627 578.663 480.168 578.663 480.824C578.663 481.407 578.876 481.868 579.3 482.206C579.724 482.544 580.387 482.826 581.288 483.051L583.555 483.608C584.921 483.939 585.939 484.446 586.608 485.129C587.278 485.805 587.612 486.677 587.612 487.744C587.612 488.619 587.36 489.402 586.857 490.091C586.359 490.78 585.663 491.324 584.769 491.722C583.874 492.119 582.833 492.318 581.646 492.318C580.089 492.318 578.799 491.98 577.778 491.304C576.758 490.628 576.111 489.64 575.84 488.341L578.067 487.784C578.279 488.606 578.68 489.223 579.27 489.634C579.867 490.045 580.645 490.25 581.607 490.25C582.7 490.25 583.569 490.018 584.212 489.554C584.861 489.083 585.186 488.52 585.186 487.864C585.186 487.333 585.001 486.889 584.629 486.531C584.258 486.167 583.688 485.895 582.919 485.716L580.374 485.119C578.975 484.788 577.948 484.274 577.291 483.578C576.642 482.875 576.317 481.997 576.317 480.943C576.317 480.081 576.559 479.319 577.043 478.656C577.533 477.993 578.199 477.473 579.041 477.095C579.89 476.717 580.851 476.528 581.925 476.528C583.436 476.528 584.623 476.86 585.484 477.523C586.353 478.186 586.969 479.061 587.334 480.148Z" fill="#7D7233"/>
<path d="M255.25 447H247.17V420.818H255.608C258.148 420.818 260.321 421.342 262.128 422.391C263.935 423.43 265.32 424.926 266.283 426.878C267.246 428.821 267.727 431.148 267.727 433.858C267.727 436.585 267.241 438.933 266.27 440.902C265.298 442.862 263.884 444.371 262.026 445.428C260.168 446.476 257.909 447 255.25 447ZM250.341 444.188H255.045C257.21 444.188 259.004 443.77 260.428 442.935C261.851 442.099 262.912 440.911 263.611 439.368C264.31 437.825 264.659 435.989 264.659 433.858C264.659 431.744 264.314 429.925 263.624 428.399C262.933 426.865 261.902 425.689 260.53 424.871C259.158 424.044 257.449 423.631 255.403 423.631H250.341V444.188ZM277.209 447H273.885L283.499 420.818H286.771L296.385 447H293.061L285.237 424.96H285.033L277.209 447ZM278.436 436.773H291.834V439.585H278.436V436.773ZM304.783 447V420.818H307.954V444.188H320.124V447H304.783ZM327.966 420.818L335.739 442.858H336.046L343.818 420.818H347.142L337.529 447H334.256L324.642 420.818H327.966ZM358.711 420.818V447H355.54V420.818H358.711ZM384.907 447H381.583L391.196 420.818H394.469L404.083 447H400.759L392.935 424.96H392.73L384.907 447ZM386.134 436.773H399.532V439.585H386.134V436.773ZM412.481 447V420.818H421.327C423.373 420.818 425.052 421.168 426.364 421.866C427.677 422.557 428.648 423.507 429.279 424.717C429.91 425.928 430.225 427.304 430.225 428.847C430.225 430.389 429.91 431.757 429.279 432.95C428.648 434.143 427.681 435.081 426.377 435.763C425.073 436.436 423.407 436.773 421.379 436.773H414.219V433.909H421.276C422.674 433.909 423.799 433.705 424.651 433.295C425.512 432.886 426.134 432.307 426.518 431.557C426.91 430.798 427.106 429.895 427.106 428.847C427.106 427.798 426.91 426.882 426.518 426.098C426.126 425.314 425.499 424.709 424.638 424.283C423.778 423.848 422.64 423.631 421.225 423.631H415.651V447H412.481ZM424.805 435.239L431.248 447H427.566L421.225 435.239H424.805ZM460.896 429H457.726C457.538 428.088 457.21 427.287 456.741 426.597C456.281 425.906 455.719 425.327 455.054 424.858C454.398 424.381 453.669 424.023 452.868 423.784C452.067 423.545 451.232 423.426 450.362 423.426C448.777 423.426 447.341 423.827 446.054 424.628C444.776 425.429 443.757 426.609 442.999 428.169C442.249 429.729 441.874 431.642 441.874 433.909C441.874 436.176 442.249 438.089 442.999 439.649C443.757 441.209 444.776 442.389 446.054 443.19C447.341 443.991 448.777 444.392 450.362 444.392C451.232 444.392 452.067 444.273 452.868 444.034C453.669 443.795 454.398 443.442 455.054 442.973C455.719 442.496 456.281 441.912 456.741 441.222C457.21 440.523 457.538 439.722 457.726 438.818H460.896C460.658 440.156 460.223 441.354 459.592 442.411C458.962 443.467 458.178 444.366 457.24 445.108C456.303 445.841 455.25 446.399 454.082 446.783C452.923 447.166 451.683 447.358 450.362 447.358C448.129 447.358 446.143 446.812 444.405 445.722C442.666 444.631 441.298 443.08 440.301 441.068C439.304 439.057 438.805 436.67 438.805 433.909C438.805 431.148 439.304 428.761 440.301 426.75C441.298 424.739 442.666 423.188 444.405 422.097C446.143 421.006 448.129 420.46 450.362 420.46C451.683 420.46 452.923 420.652 454.082 421.036C455.25 421.419 456.303 421.982 457.24 422.723C458.178 423.456 458.962 424.351 459.592 425.408C460.223 426.456 460.658 427.653 460.896 429ZM470.34 447V420.818H473.51V432.477H487.47V420.818H490.641V447H487.47V435.29H473.51V447H470.34ZM504.478 420.818V447H501.308V420.818H504.478ZM513.723 423.631V420.818H533.36V423.631H525.127V447H521.956V423.631H513.723ZM542.573 447V420.818H558.374V423.631H545.743V432.477H557.556V435.29H545.743V444.188H558.579V447H542.573ZM589.477 429H586.306C586.119 428.088 585.791 427.287 585.322 426.597C584.862 425.906 584.299 425.327 583.634 424.858C582.978 424.381 582.249 424.023 581.448 423.784C580.647 423.545 579.812 423.426 578.943 423.426C577.357 423.426 575.921 423.827 574.634 424.628C573.356 425.429 572.338 426.609 571.579 428.169C570.829 429.729 570.454 431.642 570.454 433.909C570.454 436.176 570.829 438.089 571.579 439.649C572.338 441.209 573.356 442.389 574.634 443.19C575.921 443.991 577.357 444.392 578.943 444.392C579.812 444.392 580.647 444.273 581.448 444.034C582.249 443.795 582.978 443.442 583.634 442.973C584.299 442.496 584.862 441.912 585.322 441.222C585.791 440.523 586.119 439.722 586.306 438.818H589.477C589.238 440.156 588.803 441.354 588.173 442.411C587.542 443.467 586.758 444.366 585.821 445.108C584.883 445.841 583.83 446.399 582.663 446.783C581.504 447.166 580.264 447.358 578.943 447.358C576.71 447.358 574.724 446.812 572.985 445.722C571.247 444.631 569.879 443.08 568.882 441.068C567.884 439.057 567.386 436.67 567.386 433.909C567.386 431.148 567.884 428.761 568.882 426.75C569.879 424.739 571.247 423.188 572.985 422.097C574.724 421.006 576.71 420.46 578.943 420.46C580.264 420.46 581.504 420.652 582.663 421.036C583.83 421.419 584.883 421.982 585.821 422.723C586.758 423.456 587.542 424.351 588.173 425.408C588.803 426.456 589.238 427.653 589.477 429ZM597.488 423.631V420.818H617.125V423.631H608.892V447H605.721V423.631H597.488ZM640.656 427.364C640.502 426.068 639.88 425.062 638.789 424.347C637.698 423.631 636.36 423.273 634.775 423.273C633.616 423.273 632.602 423.46 631.733 423.835C630.872 424.21 630.198 424.726 629.713 425.382C629.235 426.038 628.997 426.784 628.997 427.619C628.997 428.318 629.163 428.919 629.495 429.422C629.836 429.916 630.271 430.33 630.799 430.662C631.328 430.986 631.882 431.254 632.461 431.467C633.041 431.672 633.573 431.838 634.059 431.966L636.718 432.682C637.4 432.861 638.159 433.108 638.994 433.423C639.838 433.739 640.643 434.169 641.41 434.714C642.186 435.251 642.825 435.942 643.328 436.786C643.831 437.629 644.082 438.665 644.082 439.892C644.082 441.307 643.711 442.585 642.97 443.727C642.237 444.869 641.163 445.777 639.748 446.45C638.342 447.124 636.633 447.46 634.622 447.46C632.747 447.46 631.123 447.158 629.751 446.553C628.387 445.947 627.313 445.104 626.529 444.021C625.754 442.939 625.315 441.682 625.213 440.25H628.485C628.571 441.239 628.903 442.057 629.483 442.705C630.071 443.344 630.812 443.821 631.707 444.136C632.61 444.443 633.582 444.597 634.622 444.597C635.832 444.597 636.919 444.401 637.882 444.009C638.845 443.608 639.608 443.054 640.17 442.347C640.733 441.631 641.014 440.795 641.014 439.841C641.014 438.972 640.771 438.264 640.285 437.719C639.799 437.173 639.16 436.73 638.367 436.389C637.575 436.048 636.718 435.75 635.798 435.494L632.576 434.574C630.531 433.986 628.911 433.146 627.718 432.055C626.525 430.964 625.929 429.537 625.929 427.773C625.929 426.307 626.325 425.028 627.117 423.938C627.919 422.838 628.992 421.986 630.339 421.381C631.694 420.767 633.207 420.46 634.877 420.46C636.565 420.46 638.065 420.763 639.377 421.368C640.69 421.964 641.73 422.783 642.497 423.822C643.272 424.862 643.681 426.043 643.724 427.364H640.656Z" fill="#7C775A"/>
<line x1="4.10658" y1="402.75" x2="152.75" y2="519.893" stroke="#FFFDF1" stroke-width="3" stroke-linecap="round"/>
<path d="M746.818 448V424.727H754.682C756.5 424.727 757.992 425.038 759.159 425.659C760.326 426.273 761.189 427.117 761.75 428.193C762.311 429.269 762.591 430.492 762.591 431.864C762.591 433.235 762.311 434.451 761.75 435.511C761.189 436.572 760.33 437.405 759.17 438.011C758.011 438.61 756.53 438.909 754.727 438.909H748.364V436.364H754.636C755.879 436.364 756.879 436.182 757.636 435.818C758.402 435.455 758.955 434.939 759.295 434.273C759.644 433.598 759.818 432.795 759.818 431.864C759.818 430.932 759.644 430.117 759.295 429.42C758.947 428.723 758.39 428.186 757.625 427.807C756.86 427.42 755.848 427.227 754.591 427.227H749.636V448H746.818ZM757.773 437.545L763.5 448H760.227L754.591 437.545H757.773ZM772.38 448.409C771.274 448.409 770.27 448.201 769.368 447.784C768.467 447.36 767.751 446.75 767.221 445.955C766.69 445.152 766.425 444.182 766.425 443.045C766.425 442.045 766.622 441.235 767.016 440.614C767.41 439.985 767.936 439.492 768.596 439.136C769.255 438.78 769.982 438.515 770.777 438.341C771.58 438.159 772.387 438.015 773.198 437.909C774.258 437.773 775.118 437.67 775.777 437.602C776.444 437.527 776.929 437.402 777.232 437.227C777.543 437.053 777.698 436.75 777.698 436.318V436.227C777.698 435.106 777.391 434.235 776.777 433.614C776.171 432.992 775.251 432.682 774.016 432.682C772.736 432.682 771.732 432.962 771.005 433.523C770.277 434.083 769.766 434.682 769.471 435.318L766.925 434.409C767.38 433.348 767.986 432.523 768.743 431.932C769.508 431.333 770.342 430.917 771.243 430.682C772.152 430.439 773.046 430.318 773.925 430.318C774.486 430.318 775.13 430.386 775.857 430.523C776.592 430.652 777.3 430.92 777.982 431.33C778.671 431.739 779.243 432.356 779.698 433.182C780.152 434.008 780.38 435.114 780.38 436.5V448H777.698V445.636H777.561C777.38 446.015 777.077 446.42 776.652 446.852C776.228 447.284 775.664 447.652 774.959 447.955C774.255 448.258 773.395 448.409 772.38 448.409ZM772.789 446C773.849 446 774.743 445.792 775.471 445.375C776.205 444.958 776.758 444.42 777.13 443.761C777.508 443.102 777.698 442.409 777.698 441.682V439.227C777.584 439.364 777.334 439.489 776.948 439.602C776.569 439.708 776.13 439.803 775.63 439.886C775.137 439.962 774.656 440.03 774.186 440.091C773.724 440.144 773.349 440.189 773.061 440.227C772.365 440.318 771.713 440.466 771.107 440.67C770.508 440.867 770.024 441.167 769.652 441.568C769.289 441.962 769.107 442.5 769.107 443.182C769.107 444.114 769.452 444.818 770.141 445.295C770.838 445.765 771.721 446 772.789 446ZM788.276 437.5V448H785.595V424.727H788.276V433.273H788.504C788.913 432.371 789.526 431.655 790.345 431.125C791.17 430.587 792.269 430.318 793.64 430.318C794.829 430.318 795.871 430.557 796.765 431.034C797.659 431.504 798.352 432.227 798.845 433.205C799.345 434.174 799.595 435.409 799.595 436.909V448H796.913V437.091C796.913 435.705 796.553 434.633 795.833 433.875C795.121 433.11 794.132 432.727 792.867 432.727C791.988 432.727 791.201 432.913 790.504 433.284C789.814 433.655 789.269 434.197 788.867 434.909C788.473 435.621 788.276 436.485 788.276 437.5ZM815.821 440.864V430.545H818.503V448H815.821V445.045H815.639C815.23 445.932 814.594 446.686 813.73 447.307C812.866 447.92 811.775 448.227 810.457 448.227C809.366 448.227 808.397 447.989 807.548 447.511C806.7 447.027 806.033 446.299 805.548 445.33C805.063 444.352 804.821 443.121 804.821 441.636V430.545H807.503V441.455C807.503 442.727 807.859 443.742 808.571 444.5C809.29 445.258 810.207 445.636 811.321 445.636C811.987 445.636 812.665 445.466 813.355 445.125C814.052 444.784 814.635 444.261 815.105 443.557C815.582 442.852 815.821 441.955 815.821 440.864ZM826.416 424.727V448H823.735V424.727H826.416ZM851.394 448H844.212V424.727H851.712C853.97 424.727 855.901 425.193 857.507 426.125C859.113 427.049 860.345 428.379 861.201 430.114C862.057 431.841 862.485 433.909 862.485 436.318C862.485 438.742 862.053 440.83 861.189 442.58C860.326 444.322 859.068 445.663 857.416 446.602C855.765 447.534 853.757 448 851.394 448ZM847.03 445.5H851.212C853.136 445.5 854.731 445.129 855.996 444.386C857.261 443.644 858.204 442.587 858.826 441.216C859.447 439.845 859.757 438.212 859.757 436.318C859.757 434.439 859.451 432.822 858.837 431.466C858.223 430.102 857.307 429.057 856.087 428.33C854.867 427.595 853.348 427.227 851.53 427.227H847.03V445.5ZM872.305 448.409C871.199 448.409 870.195 448.201 869.293 447.784C868.392 447.36 867.676 446.75 867.146 445.955C866.615 445.152 866.35 444.182 866.35 443.045C866.35 442.045 866.547 441.235 866.941 440.614C867.335 439.985 867.861 439.492 868.521 439.136C869.18 438.78 869.907 438.515 870.702 438.341C871.505 438.159 872.312 438.015 873.123 437.909C874.183 437.773 875.043 437.67 875.702 437.602C876.369 437.527 876.854 437.402 877.157 437.227C877.468 437.053 877.623 436.75 877.623 436.318V436.227C877.623 435.106 877.316 434.235 876.702 433.614C876.096 432.992 875.176 432.682 873.941 432.682C872.661 432.682 871.657 432.962 870.93 433.523C870.202 434.083 869.691 434.682 869.396 435.318L866.85 434.409C867.305 433.348 867.911 432.523 868.668 431.932C869.433 431.333 870.267 430.917 871.168 430.682C872.077 430.439 872.971 430.318 873.85 430.318C874.411 430.318 875.055 430.386 875.782 430.523C876.517 430.652 877.225 430.92 877.907 431.33C878.596 431.739 879.168 432.356 879.623 433.182C880.077 434.008 880.305 435.114 880.305 436.5V448H877.623V445.636H877.486C877.305 446.015 877.002 446.42 876.577 446.852C876.153 447.284 875.589 447.652 874.884 447.955C874.18 448.258 873.32 448.409 872.305 448.409ZM872.714 446C873.774 446 874.668 445.792 875.396 445.375C876.13 444.958 876.683 444.42 877.055 443.761C877.433 443.102 877.623 442.409 877.623 441.682V439.227C877.509 439.364 877.259 439.489 876.873 439.602C876.494 439.708 876.055 439.803 875.555 439.886C875.062 439.962 874.581 440.03 874.111 440.091C873.649 440.144 873.274 440.189 872.986 440.227C872.29 440.318 871.638 440.466 871.032 440.67C870.433 440.867 869.949 441.167 869.577 441.568C869.214 441.962 869.032 442.5 869.032 443.182C869.032 444.114 869.377 444.818 870.066 445.295C870.763 445.765 871.646 446 872.714 446ZM888.201 424.727V448H885.52V424.727H888.201ZM907.706 430.545L901.251 448H898.524L892.07 430.545H894.979L899.797 444.455H899.979L904.797 430.545H907.706ZM911.566 448V430.545H914.248V448H911.566ZM912.929 427.636C912.407 427.636 911.956 427.458 911.577 427.102C911.206 426.746 911.02 426.318 911.02 425.818C911.02 425.318 911.206 424.89 911.577 424.534C911.956 424.178 912.407 424 912.929 424C913.452 424 913.899 424.178 914.27 424.534C914.649 424.89 914.839 425.318 914.839 425.818C914.839 426.318 914.649 426.746 914.27 427.102C913.899 427.458 913.452 427.636 912.929 427.636Z" fill="#7C775A"/>
<path d="M744.59 480.307H740.25V484.636H738.821V480.307H734.492V478.867H738.821V474.538H740.25V478.867H744.59V480.307ZM759.826 477.374C759.826 478.785 759.686 480.042 759.407 481.145C759.127 482.24 758.719 483.171 758.182 483.938C757.645 484.697 756.99 485.277 756.216 485.678C755.443 486.072 754.562 486.269 753.574 486.269C752.557 486.269 751.662 486.09 750.888 485.731V484.045C751.74 484.525 752.65 484.765 753.617 484.765C754.311 484.765 754.931 484.621 755.475 484.335C756.027 484.049 756.492 483.633 756.872 483.089C757.251 482.537 757.541 481.861 757.742 481.059C757.942 480.257 758.042 479.336 758.042 478.298H758C757.341 479.623 756.195 480.285 754.562 480.285C753.903 480.285 753.298 480.171 752.747 479.941C752.195 479.705 751.719 479.376 751.318 478.953C750.917 478.523 750.605 478.015 750.383 477.428C750.161 476.84 750.05 476.192 750.05 475.483C750.05 474.724 750.172 474.03 750.416 473.399C750.666 472.769 751.01 472.229 751.447 471.777C751.891 471.319 752.414 470.965 753.015 470.714C753.624 470.463 754.286 470.338 755.002 470.338C755.776 470.338 756.46 470.495 757.054 470.811C757.656 471.118 758.161 471.573 758.569 472.175C758.977 472.769 759.289 473.503 759.503 474.377C759.718 475.251 759.826 476.25 759.826 477.374ZM757.924 475.795C757.924 475.201 757.846 474.66 757.688 474.173C757.538 473.686 757.326 473.271 757.054 472.927C756.782 472.576 756.456 472.307 756.077 472.121C755.704 471.928 755.296 471.831 754.852 471.831C754.43 471.831 754.036 471.917 753.67 472.089C753.305 472.254 752.987 472.49 752.714 472.798C752.449 473.099 752.238 473.46 752.081 473.883C751.93 474.298 751.855 474.753 751.855 475.247C751.855 475.791 751.927 476.278 752.07 476.708C752.22 477.138 752.431 477.503 752.704 477.804C752.976 478.097 753.302 478.323 753.681 478.48C754.068 478.638 754.494 478.717 754.959 478.717C755.368 478.717 755.751 478.642 756.109 478.491C756.474 478.334 756.789 478.126 757.054 477.868C757.326 477.603 757.538 477.295 757.688 476.944C757.846 476.586 757.924 476.203 757.924 475.795ZM770.657 486H768.896V472.69C768.759 472.826 768.559 472.984 768.294 473.163C768.036 473.335 767.743 473.507 767.413 473.679C767.091 473.851 766.747 474.012 766.382 474.162C766.024 474.312 765.673 474.431 765.329 474.517V472.733C765.716 472.626 766.124 472.483 766.554 472.304C766.991 472.118 767.417 471.913 767.832 471.691C768.255 471.462 768.652 471.226 769.024 470.982C769.397 470.732 769.719 470.488 769.991 470.252H770.657V486ZM795.522 477.374C795.522 478.785 795.382 480.042 795.103 481.145C794.823 482.24 794.415 483.171 793.878 483.938C793.341 484.697 792.686 485.277 791.912 485.678C791.139 486.072 790.258 486.269 789.27 486.269C788.253 486.269 787.357 486.09 786.584 485.731V484.045C787.436 484.525 788.346 484.765 789.313 484.765C790.007 484.765 790.627 484.621 791.171 484.335C791.722 484.049 792.188 483.633 792.567 483.089C792.947 482.537 793.237 481.861 793.438 481.059C793.638 480.257 793.738 479.336 793.738 478.298H793.695C793.037 479.623 791.891 480.285 790.258 480.285C789.599 480.285 788.994 480.171 788.442 479.941C787.891 479.705 787.415 479.376 787.014 478.953C786.613 478.523 786.301 478.015 786.079 477.428C785.857 476.84 785.746 476.192 785.746 475.483C785.746 474.724 785.868 474.03 786.111 473.399C786.362 472.769 786.706 472.229 787.143 471.777C787.587 471.319 788.109 470.965 788.711 470.714C789.32 470.463 789.982 470.338 790.698 470.338C791.472 470.338 792.156 470.495 792.75 470.811C793.352 471.118 793.857 471.573 794.265 472.175C794.673 472.769 794.984 473.503 795.199 474.377C795.414 475.251 795.522 476.25 795.522 477.374ZM793.62 475.795C793.62 475.201 793.541 474.66 793.384 474.173C793.233 473.686 793.022 473.271 792.75 472.927C792.478 472.576 792.152 472.307 791.773 472.121C791.4 471.928 790.992 471.831 790.548 471.831C790.125 471.831 789.732 471.917 789.366 472.089C789.001 472.254 788.682 472.49 788.41 472.798C788.145 473.099 787.934 473.46 787.776 473.883C787.626 474.298 787.551 474.753 787.551 475.247C787.551 475.791 787.622 476.278 787.766 476.708C787.916 477.138 788.127 477.503 788.399 477.804C788.672 478.097 788.997 478.323 789.377 478.48C789.764 478.638 790.19 478.717 790.655 478.717C791.064 478.717 791.447 478.642 791.805 478.491C792.17 478.334 792.485 478.126 792.75 477.868C793.022 477.603 793.233 477.295 793.384 476.944C793.541 476.586 793.62 476.203 793.62 475.795ZM809.361 477.374C809.361 478.785 809.221 480.042 808.942 481.145C808.663 482.24 808.254 483.171 807.717 483.938C807.18 484.697 806.525 485.277 805.752 485.678C804.978 486.072 804.097 486.269 803.109 486.269C802.092 486.269 801.197 486.09 800.423 485.731V484.045C801.276 484.525 802.185 484.765 803.152 484.765C803.847 484.765 804.466 484.621 805.01 484.335C805.562 484.049 806.027 483.633 806.407 483.089C806.786 482.537 807.076 481.861 807.277 481.059C807.477 480.257 807.578 479.336 807.578 478.298H807.535C806.876 479.623 805.73 480.285 804.097 480.285C803.438 480.285 802.833 480.171 802.282 479.941C801.73 479.705 801.254 479.376 800.853 478.953C800.452 478.523 800.141 478.015 799.919 477.428C799.697 476.84 799.586 476.192 799.586 475.483C799.586 474.724 799.707 474.03 799.951 473.399C800.201 472.769 800.545 472.229 800.982 471.777C801.426 471.319 801.949 470.965 802.55 470.714C803.159 470.463 803.822 470.338 804.538 470.338C805.311 470.338 805.995 470.495 806.589 470.811C807.191 471.118 807.696 471.573 808.104 472.175C808.512 472.769 808.824 473.503 809.039 474.377C809.254 475.251 809.361 476.25 809.361 477.374ZM807.46 475.795C807.46 475.201 807.381 474.66 807.223 474.173C807.073 473.686 806.862 473.271 806.589 472.927C806.317 472.576 805.991 472.307 805.612 472.121C805.24 471.928 804.831 471.831 804.387 471.831C803.965 471.831 803.571 471.917 803.206 472.089C802.84 472.254 802.522 472.49 802.25 472.798C801.985 473.099 801.773 473.46 801.616 473.883C801.465 474.298 801.39 474.753 801.39 475.247C801.39 475.791 801.462 476.278 801.605 476.708C801.755 477.138 801.967 477.503 802.239 477.804C802.511 478.097 802.837 478.323 803.216 478.48C803.603 478.638 804.029 478.717 804.495 478.717C804.903 478.717 805.286 478.642 805.644 478.491C806.009 478.334 806.324 478.126 806.589 477.868C806.862 477.603 807.073 477.295 807.223 476.944C807.381 476.586 807.46 476.203 807.46 475.795ZM823.2 477.374C823.2 478.785 823.061 480.042 822.781 481.145C822.502 482.24 822.094 483.171 821.557 483.938C821.02 484.697 820.364 485.277 819.591 485.678C818.817 486.072 817.937 486.269 816.948 486.269C815.931 486.269 815.036 486.09 814.263 485.731V484.045C815.115 484.525 816.025 484.765 816.991 484.765C817.686 484.765 818.305 484.621 818.85 484.335C819.401 484.049 819.867 483.633 820.246 483.089C820.626 482.537 820.916 481.861 821.116 481.059C821.317 480.257 821.417 479.336 821.417 478.298H821.374C820.715 479.623 819.569 480.285 817.937 480.285C817.278 480.285 816.673 480.171 816.121 479.941C815.57 479.705 815.094 479.376 814.692 478.953C814.291 478.523 813.98 478.015 813.758 477.428C813.536 476.84 813.425 476.192 813.425 475.483C813.425 474.724 813.547 474.03 813.79 473.399C814.041 472.769 814.385 472.229 814.821 471.777C815.265 471.319 815.788 470.965 816.39 470.714C816.998 470.463 817.661 470.338 818.377 470.338C819.151 470.338 819.834 470.495 820.429 470.811C821.03 471.118 821.535 471.573 821.943 472.175C822.352 472.769 822.663 473.503 822.878 474.377C823.093 475.251 823.2 476.25 823.2 477.374ZM821.299 475.795C821.299 475.201 821.22 474.66 821.063 474.173C820.912 473.686 820.701 473.271 820.429 472.927C820.157 472.576 819.831 472.307 819.451 472.121C819.079 471.928 818.671 471.831 818.227 471.831C817.804 471.831 817.41 471.917 817.045 472.089C816.68 472.254 816.361 472.49 816.089 472.798C815.824 473.099 815.613 473.46 815.455 473.883C815.305 474.298 815.23 474.753 815.23 475.247C815.23 475.791 815.301 476.278 815.444 476.708C815.595 477.138 815.806 477.503 816.078 477.804C816.35 478.097 816.676 478.323 817.056 478.48C817.442 478.638 817.869 478.717 818.334 478.717C818.742 478.717 819.125 478.642 819.484 478.491C819.849 478.334 820.164 478.126 820.429 477.868C820.701 477.603 820.912 477.295 821.063 476.944C821.22 476.586 821.299 476.203 821.299 475.795ZM827.221 481.703C827.221 481.295 827.286 480.887 827.415 480.479C827.544 480.063 827.726 479.676 827.963 479.318C828.206 478.96 828.503 478.634 828.854 478.341C829.212 478.047 829.617 477.814 830.068 477.643C829.402 477.27 828.872 476.794 828.478 476.214C828.084 475.627 827.887 474.979 827.887 474.27C827.887 473.704 827.995 473.181 828.21 472.701C828.432 472.221 828.736 471.806 829.123 471.455C829.509 471.104 829.968 470.832 830.498 470.639C831.028 470.438 831.601 470.338 832.216 470.338C832.839 470.338 833.416 470.438 833.946 470.639C834.476 470.839 834.934 471.115 835.321 471.466C835.708 471.817 836.008 472.232 836.223 472.712C836.438 473.192 836.546 473.711 836.546 474.27C836.546 474.979 836.349 475.627 835.955 476.214C835.561 476.794 835.038 477.27 834.386 477.643C834.83 477.814 835.228 478.047 835.579 478.341C835.93 478.634 836.223 478.96 836.46 479.318C836.703 479.676 836.889 480.063 837.018 480.479C837.147 480.887 837.212 481.295 837.212 481.703C837.212 482.376 837.09 482.992 836.846 483.551C836.603 484.109 836.259 484.589 835.815 484.99C835.378 485.384 834.852 485.692 834.236 485.914C833.627 486.136 832.954 486.247 832.216 486.247C831.486 486.247 830.816 486.136 830.208 485.914C829.599 485.692 829.073 485.384 828.629 484.99C828.185 484.589 827.837 484.109 827.587 483.551C827.343 482.992 827.221 482.376 827.221 481.703ZM829.133 481.553C829.133 482.033 829.205 482.466 829.348 482.853C829.499 483.239 829.706 483.569 829.971 483.841C830.243 484.113 830.569 484.324 830.949 484.475C831.336 484.618 831.762 484.689 832.227 484.689C832.678 484.689 833.094 484.614 833.473 484.464C833.853 484.313 834.179 484.102 834.451 483.83C834.73 483.558 834.945 483.229 835.095 482.842C835.253 482.455 835.332 482.025 835.332 481.553C835.332 481.123 835.256 480.722 835.106 480.35C834.963 479.97 834.755 479.637 834.483 479.351C834.211 479.064 833.885 478.839 833.506 478.674C833.126 478.509 832.7 478.427 832.227 478.427C831.783 478.427 831.371 478.506 830.992 478.663C830.619 478.813 830.294 479.028 830.014 479.308C829.742 479.58 829.527 479.909 829.37 480.296C829.212 480.675 829.133 481.094 829.133 481.553ZM829.681 474.409C829.681 474.774 829.746 475.115 829.875 475.43C830.011 475.738 830.193 476.01 830.423 476.246C830.659 476.475 830.931 476.658 831.239 476.794C831.547 476.923 831.876 476.987 832.227 476.987C832.578 476.987 832.908 476.919 833.215 476.783C833.531 476.647 833.803 476.465 834.032 476.235C834.261 475.999 834.444 475.727 834.58 475.419C834.716 475.104 834.784 474.767 834.784 474.409C834.784 474.037 834.716 473.693 834.58 473.378C834.451 473.063 834.272 472.791 834.043 472.562C833.813 472.332 833.541 472.153 833.226 472.024C832.918 471.888 832.585 471.82 832.227 471.82C831.848 471.82 831.5 471.888 831.185 472.024C830.877 472.16 830.609 472.347 830.38 472.583C830.158 472.812 829.986 473.084 829.864 473.399C829.742 473.715 829.681 474.051 829.681 474.409ZM841.061 481.703C841.061 481.295 841.125 480.887 841.254 480.479C841.383 480.063 841.566 479.676 841.802 479.318C842.045 478.96 842.343 478.634 842.694 478.341C843.052 478.047 843.456 477.814 843.907 477.643C843.241 477.27 842.711 476.794 842.318 476.214C841.924 475.627 841.727 474.979 841.727 474.27C841.727 473.704 841.834 473.181 842.049 472.701C842.271 472.221 842.575 471.806 842.962 471.455C843.349 471.104 843.807 470.832 844.337 470.639C844.867 470.438 845.44 470.338 846.056 470.338C846.679 470.338 847.255 470.438 847.785 470.639C848.315 470.839 848.774 471.115 849.16 471.466C849.547 471.817 849.848 472.232 850.063 472.712C850.277 473.192 850.385 473.711 850.385 474.27C850.385 474.979 850.188 475.627 849.794 476.214C849.4 476.794 848.877 477.27 848.226 477.643C848.67 477.814 849.067 478.047 849.418 478.341C849.769 478.634 850.063 478.96 850.299 479.318C850.542 479.676 850.729 480.063 850.858 480.479C850.986 480.887 851.051 481.295 851.051 481.703C851.051 482.376 850.929 482.992 850.686 483.551C850.442 484.109 850.098 484.589 849.654 484.99C849.218 485.384 848.691 485.692 848.075 485.914C847.467 486.136 846.793 486.247 846.056 486.247C845.325 486.247 844.656 486.136 844.047 485.914C843.438 485.692 842.912 485.384 842.468 484.99C842.024 484.589 841.677 484.109 841.426 483.551C841.182 482.992 841.061 482.376 841.061 481.703ZM842.973 481.553C842.973 482.033 843.044 482.466 843.188 482.853C843.338 483.239 843.546 483.569 843.811 483.841C844.083 484.113 844.409 484.324 844.788 484.475C845.175 484.618 845.601 484.689 846.067 484.689C846.518 484.689 846.933 484.614 847.313 484.464C847.692 484.313 848.018 484.102 848.29 483.83C848.569 483.558 848.784 483.229 848.935 482.842C849.092 482.455 849.171 482.025 849.171 481.553C849.171 481.123 849.096 480.722 848.945 480.35C848.802 479.97 848.595 479.637 848.322 479.351C848.05 479.064 847.724 478.839 847.345 478.674C846.965 478.509 846.539 478.427 846.067 478.427C845.623 478.427 845.211 478.506 844.831 478.663C844.459 478.813 844.133 479.028 843.854 479.308C843.582 479.58 843.367 479.909 843.209 480.296C843.052 480.675 842.973 481.094 842.973 481.553ZM843.521 474.409C843.521 474.774 843.585 475.115 843.714 475.43C843.85 475.738 844.033 476.01 844.262 476.246C844.498 476.475 844.77 476.658 845.078 476.794C845.386 476.923 845.716 476.987 846.067 476.987C846.417 476.987 846.747 476.919 847.055 476.783C847.37 476.647 847.642 476.465 847.871 476.235C848.1 475.999 848.283 475.727 848.419 475.419C848.555 475.104 848.623 474.767 848.623 474.409C848.623 474.037 848.555 473.693 848.419 473.378C848.29 473.063 848.111 472.791 847.882 472.562C847.653 472.332 847.381 472.153 847.066 472.024C846.758 471.888 846.425 471.82 846.067 471.82C845.687 471.82 845.34 471.888 845.025 472.024C844.717 472.16 844.448 472.347 844.219 472.583C843.997 472.812 843.825 473.084 843.703 473.399C843.582 473.715 843.521 474.051 843.521 474.409ZM862.917 481.703C862.917 481.295 862.982 480.887 863.111 480.479C863.239 480.063 863.422 479.676 863.658 479.318C863.902 478.96 864.199 478.634 864.55 478.341C864.908 478.047 865.313 477.814 865.764 477.643C865.098 477.27 864.568 476.794 864.174 476.214C863.78 475.627 863.583 474.979 863.583 474.27C863.583 473.704 863.691 473.181 863.905 472.701C864.127 472.221 864.432 471.806 864.819 471.455C865.205 471.104 865.664 470.832 866.194 470.639C866.724 470.438 867.296 470.338 867.912 470.338C868.535 470.338 869.112 470.438 869.642 470.639C870.172 470.839 870.63 471.115 871.017 471.466C871.404 471.817 871.704 472.232 871.919 472.712C872.134 473.192 872.241 473.711 872.241 474.27C872.241 474.979 872.044 475.627 871.651 476.214C871.257 476.794 870.734 477.27 870.082 477.643C870.526 477.814 870.924 478.047 871.275 478.341C871.626 478.634 871.919 478.96 872.155 479.318C872.399 479.676 872.585 480.063 872.714 480.479C872.843 480.887 872.907 481.295 872.907 481.703C872.907 482.376 872.786 482.992 872.542 483.551C872.299 484.109 871.955 484.589 871.511 484.99C871.074 485.384 870.548 485.692 869.932 485.914C869.323 486.136 868.65 486.247 867.912 486.247C867.182 486.247 866.512 486.136 865.904 485.914C865.295 485.692 864.768 485.384 864.324 484.99C863.88 484.589 863.533 484.109 863.282 483.551C863.039 482.992 862.917 482.376 862.917 481.703ZM864.829 481.553C864.829 482.033 864.901 482.466 865.044 482.853C865.195 483.239 865.402 483.569 865.667 483.841C865.939 484.113 866.265 484.324 866.645 484.475C867.031 484.618 867.458 484.689 867.923 484.689C868.374 484.689 868.79 484.614 869.169 484.464C869.549 484.313 869.875 484.102 870.147 483.83C870.426 483.558 870.641 483.229 870.791 482.842C870.949 482.455 871.028 482.025 871.028 481.553C871.028 481.123 870.952 480.722 870.802 480.35C870.659 479.97 870.451 479.637 870.179 479.351C869.907 479.064 869.581 478.839 869.201 478.674C868.822 478.509 868.396 478.427 867.923 478.427C867.479 478.427 867.067 478.506 866.688 478.663C866.315 478.813 865.989 479.028 865.71 479.308C865.438 479.58 865.223 479.909 865.066 480.296C864.908 480.675 864.829 481.094 864.829 481.553ZM865.377 474.409C865.377 474.774 865.442 475.115 865.571 475.43C865.707 475.738 865.889 476.01 866.118 476.246C866.355 476.475 866.627 476.658 866.935 476.794C867.243 476.923 867.572 476.987 867.923 476.987C868.274 476.987 868.603 476.919 868.911 476.783C869.226 476.647 869.499 476.465 869.728 476.235C869.957 475.999 870.14 475.727 870.276 475.419C870.412 475.104 870.48 474.767 870.48 474.409C870.48 474.037 870.412 473.693 870.276 473.378C870.147 473.063 869.968 472.791 869.738 472.562C869.509 472.332 869.237 472.153 868.922 472.024C868.614 471.888 868.281 471.82 867.923 471.82C867.543 471.82 867.196 471.888 866.881 472.024C866.573 472.16 866.305 472.347 866.075 472.583C865.853 472.812 865.682 473.084 865.56 473.399C865.438 473.715 865.377 474.051 865.377 474.409ZM886.639 471.616C886.403 472.024 886.117 472.533 885.78 473.142C885.451 473.75 885.1 474.434 884.727 475.193C884.355 475.952 883.975 476.769 883.589 477.643C883.202 478.516 882.84 479.419 882.504 480.35C882.167 481.281 881.87 482.226 881.612 483.186C881.361 484.138 881.179 485.076 881.064 486H879.174C879.302 485.083 879.499 484.149 879.764 483.196C880.037 482.237 880.341 481.299 880.677 480.382C881.021 479.458 881.383 478.57 881.762 477.718C882.142 476.866 882.511 476.081 882.869 475.365C883.227 474.649 883.553 474.019 883.846 473.475C884.147 472.923 884.387 472.493 884.566 472.186H876.842V470.596H886.639V471.616ZM900.479 471.616C900.242 472.024 899.956 472.533 899.619 473.142C899.29 473.75 898.939 474.434 898.567 475.193C898.194 475.952 897.815 476.769 897.428 477.643C897.041 478.516 896.68 479.419 896.343 480.35C896.006 481.281 895.709 482.226 895.451 483.186C895.201 484.138 895.018 485.076 894.904 486H893.013C893.142 485.083 893.339 484.149 893.604 483.196C893.876 482.237 894.18 481.299 894.517 480.382C894.861 479.458 895.222 478.57 895.602 477.718C895.981 476.866 896.35 476.081 896.708 475.365C897.066 474.649 897.392 474.019 897.686 473.475C897.987 472.923 898.226 472.493 898.406 472.186H890.682V470.596H900.479V471.616ZM914.318 471.616C914.082 472.024 913.795 472.533 913.459 473.142C913.129 473.75 912.778 474.434 912.406 475.193C912.034 475.952 911.654 476.769 911.267 477.643C910.881 478.516 910.519 479.419 910.182 480.35C909.846 481.281 909.549 482.226 909.291 483.186C909.04 484.138 908.858 485.076 908.743 486H906.852C906.981 485.083 907.178 484.149 907.443 483.196C907.715 482.237 908.02 481.299 908.356 480.382C908.7 479.458 909.062 478.57 909.441 477.718C909.821 476.866 910.19 476.081 910.548 475.365C910.906 474.649 911.232 474.019 911.525 473.475C911.826 472.923 912.066 472.493 912.245 472.186H904.521V470.596H914.318V471.616ZM928.158 471.616C927.921 472.024 927.635 472.533 927.298 473.142C926.969 473.75 926.618 474.434 926.245 475.193C925.873 475.952 925.493 476.769 925.107 477.643C924.72 478.516 924.358 479.419 924.022 480.35C923.685 481.281 923.388 482.226 923.13 483.186C922.88 484.138 922.697 485.076 922.582 486H920.692C920.821 485.083 921.018 484.149 921.283 483.196C921.555 482.237 921.859 481.299 922.196 480.382C922.539 479.458 922.901 478.57 923.281 477.718C923.66 476.866 924.029 476.081 924.387 475.365C924.745 474.649 925.071 474.019 925.365 473.475C925.665 472.923 925.905 472.493 926.084 472.186H918.361V470.596H928.158V471.616Z" fill="#7C775A"/>
<g clip-path="url(#clip1_0_1)">
<path d="M1043.96 530.98C1043.9 530 1043.14 529.256 1042.15 529.197C1041.04 529.131 1037.48 529.077 1036.45 529.077C1038.28 530.341 1038.53 532.721 1038.71 537.143C1038.81 539.763 1038.72 548.942 1038.71 549.331L1038.66 551.835L1029.03 542.205V539.191L1036.69 546.849C1036.71 545.333 1036.73 543.357 1036.73 541.55C1036.73 539.79 1036.7 538.196 1036.65 537.357C1036.36 532.538 1035.92 530.28 1033.4 529.395C1032.63 529.125 1031.91 529.06 1030.72 529.044C1029.73 529.032 1022.85 529.037 1021.85 529.091C1020.8 529.147 1020.09 529.914 1020.04 530.9C1019.99 531.877 1019.98 550.074 1020.04 551.065C1020.1 552.045 1020.86 552.789 1021.85 552.847C1022.96 552.914 1026.52 552.922 1027.55 552.922C1025.72 551.658 1025.47 549.279 1025.29 544.856C1025.19 542.236 1025.28 533.056 1025.29 532.668L1025.34 530.164L1034.97 539.794V542.807L1027.31 535.152C1027.29 536.666 1027.27 538.642 1027.27 540.45C1027.27 542.21 1027.3 543.804 1027.35 544.642C1027.64 549.462 1028.09 551.719 1030.6 552.604C1031.37 552.875 1032.09 552.941 1033.28 552.956C1034.27 552.968 1041.15 552.962 1042.15 552.909C1043.2 552.853 1043.91 552.087 1043.96 551.098C1044.01 550.122 1044.02 531.971 1043.96 530.98" fill="#7D7233"/>
</g>
</g>
</g>
<defs>
<filter id="filter0_d_0_1" x="0" y="0.33905" width="1076" height="626" filterUnits="userSpaceOnUse" color-interpolation-filters="sRGB">
<feFlood flood-opacity="0" result="BackgroundImageFix"/>
<feColorMatrix in="SourceAlpha" type="matrix" values="0 0 0 0 0 0 0 0 0 0 0 0 0 0 0 0 0 0 127 0" result="hardAlpha"/>
<feMorphology radius="6" operator="dilate" in="SourceAlpha" result="effect1_dropShadow_0_1"/>
<feOffset dx="11" dy="12"/>
<feGaussianBlur stdDeviation="3.5"/>
<feComposite in2="hardAlpha" operator="out"/>
<feColorMatrix type="matrix" values="0 0 0 0 0 0 0 0 0 0 0 0 0 0 0 0 0 0 0.25 0"/>
<feBlend mode="normal" in2="BackgroundImageFix" result="effect1_dropShadow_0_1"/>
<feBlend mode="normal" in="SourceGraphic" in2="effect1_dropShadow_0_1" result="shape"/>
</filter>
<clipPath id="clip0_0_1">
<rect x="2" y="1.33905" width="1050" height="600" rx="12" fill="white"/>
</clipPath>
<clipPath id="clip1_0_1">
<rect width="24" height="24" fill="white" transform="translate(1020 529)"/>
</clipPath>
</defs>
</svg>
