<svg xmlns="http://www.w3.org/2000/svg" viewBox="0 0 24 24"><path fill="#0083CA" d="M16.738 12.951V8.4h-2.399v2.283l-3.265 2.082-.546-.334 3.212-2.122-1.399-.934-3.251 2.068-.52-.347 3.225-2.082L10.289 8l-4.144 2.669-.08-.227-.093-.227-.12-.214-.12-.213-.147-.2-.16-.187-.187-.173-.187-.16-.213-.147-.227-.133-.24-.107-.253-.107-.28-.067-.293-.067-.307-.027-.32-.013H0v6.684h2.944l.333-.013.306-.04.293-.053.28-.08.267-.107.24-.12.24-.133.2-.16.2-.16.173-.187.16-.2.147-.2.12-.227.12-.227.08-.227.08-.24 4.118 2.789 4.038-2.602v2.189h4.531v-2.135h-2.132zM4.064 11.95l-.053.227-.093.2-.133.187-.16.16-.2.12-.24.08-.267.027h-.626v-2.455h.626l.28.027.227.08.2.12.173.16.12.187.093.2.053.227.013.227-.013.226zM19.469 8.4h2.412v4.551H24v2.135h-4.531V8.4z"/></svg>