<?xml version="1.0" standalone="no"?>
<!DOCTYPE svg PUBLIC "-//W3C//DTD SVG 20010904//EN"
 "http://www.w3.org/TR/2001/REC-SVG-20010904/DTD/svg10.dtd">
<svg version="1.0" xmlns="http://www.w3.org/2000/svg"
 width="568.000000pt" height="630.000000pt" viewBox="0 0 568.000000 630.000000"
 preserveAspectRatio="xMidYMid meet">

<g transform="translate(0.000000,630.000000) scale(0.100000,-0.100000)"
fill="#000000" stroke="none">
<path d="M880 3610 l0 -2690 2400 0 2400 0 0 2690 0 2690 -2400 0 -2400 0 0
-2690z m2710 1943 c376 -76 692 -246 957 -515 92 -92 193 -216 193 -235 0 -11
-29 -33 -43 -33 -3 0 -29 30 -57 68 -79 101 -264 279 -368 352 -330 234 -685
341 -1082 327 -180 -6 -300 -28 -475 -87 -65 -22 -126 -40 -135 -40 -66 -1
-500 -268 -500 -308 0 -10 -23 -40 -51 -67 -228 -223 -402 -516 -495 -835 -55
-190 -77 -345 -77 -550 0 -161 6 -228 40 -399 16 -81 16 -84 -2 -97 -28 -21
-39 -13 -53 42 -58 229 -64 621 -12 849 51 226 98 363 187 540 103 207 324
482 476 594 79 59 302 199 398 250 155 83 385 150 579 169 147 14 385 3 520
-25z m-1095 -117 c-97 -54 -195 -113 -275 -166 -103 -67 -111 -62 -15 8 87 64
196 129 278 167 75 36 82 30 12 -9z m1020 -88 c22 -26 25 -38 20 -66 -11 -59
-113 -202 -143 -202 -11 0 0 17 30 48 87 89 110 171 62 219 -22 22 -31 25 -70
19 -73 -10 -84 -20 -84 -75 0 -27 7 -85 15 -128 8 -43 15 -79 15 -79 0 -1 -11
-4 -24 -6 l-24 -5 0 109 c0 60 -5 114 -10 121 -6 6 -8 25 -5 40 5 24 9 27 32
23 14 -3 33 -2 41 4 8 5 38 10 67 10 45 0 54 -4 78 -32z m-496 -24 c16 -63 42
-112 85 -159 31 -33 36 -44 30 -70 -3 -16 -8 -32 -10 -34 -8 -8 -23 12 -29 40
-8 37 -19 42 -70 31 -34 -7 -40 -12 -37 -32 2 -22 -12 -39 -32 -40 -5 0 -6 13
-3 29 3 15 1 33 -4 38 -6 6 -5 14 6 23 9 8 16 31 17 64 1 50 2 50 5 9 4 -40 6
-43 33 -43 16 0 32 5 36 11 8 14 -45 121 -57 113 -10 -6 -12 49 -2 59 14 14
21 5 32 -39z m839 0 c12 -4 22 -11 22 -16 0 -10 -39 -1 -54 13 -12 11 -1 11
32 3z m-27 -85 c-15 -42 -14 -147 1 -204 11 -41 10 -46 -7 -60 -30 -22 -34
-19 -37 28 -3 38 -7 44 -42 62 -25 13 -40 16 -43 9 -10 -29 -28 -43 -43 -34
-12 8 -12 11 3 28 11 12 15 26 11 37 -6 14 -4 17 9 12 13 -5 31 15 78 84 42
63 64 88 71 81 7 -7 7 -21 -1 -43z m-1256 -1 c-4 -13 -10 -43 -14 -68 l-7 -45
-6 50 c-6 50 3 85 24 85 6 0 8 -9 3 -22z m211 -191 c16 -42 17 -49 4 -57 -17
-11 -17 -11 -51 104 -13 43 -28 80 -34 82 -6 3 -28 -2 -48 -11 -42 -17 -47
-18 -47 -6 0 5 28 20 63 34 l62 25 16 -62 c9 -33 25 -83 35 -109z m-161 -13
c27 -20 49 -29 76 -29 22 0 39 -3 39 -7 0 -13 -68 -9 -103 6 -43 18 -66 45
-72 87 l-6 34 14 -31 c8 -17 32 -44 52 -60z m-333 -204 c4 0 15 -15 24 -32
l16 -33 -40 39 c-24 22 -50 38 -64 38 -28 0 -140 -31 -151 -42 -5 -4 34 -45
87 -91 75 -65 93 -86 84 -96 -9 -11 -31 7 -110 88 -54 55 -98 105 -98 109 0 4
16 11 35 14 46 9 125 43 125 54 0 4 -13 21 -30 37 -16 15 -27 32 -24 37 4 6
36 -20 72 -56 36 -36 70 -66 74 -66z m983 120 c-11 -5 -40 -9 -65 -9 -25 -1
-72 -5 -105 -10 -33 -5 -87 -11 -120 -14 l-60 -5 55 14 c97 26 346 46 295 24z
m248 -22 c64 -16 83 -24 63 -26 -15 -2 -42 2 -58 9 -16 7 -57 18 -91 24 -35 7
-50 13 -34 14 15 0 69 -9 120 -21z m851 1 c47 -37 28 -77 -42 -88 -43 -7 -47
-17 -37 -107 5 -50 10 -64 26 -69 23 -8 25 -25 3 -25 -12 0 -15 -7 -12 -25 4
-20 1 -25 -14 -25 -16 0 -19 5 -14 24 7 28 -4 38 -63 55 -62 18 -91 50 -91
102 0 56 44 99 101 99 34 0 41 4 50 28 10 29 35 52 55 52 6 0 23 -9 38 -21z
m276 -171 c0 -20 -21 -3 -61 50 -24 31 -61 77 -82 102 -22 25 2 3 52 -49 50
-52 91 -98 91 -103z m-935 111 c67 -25 216 -111 285 -164 30 -24 88 -77 128
-118 l73 -74 -30 -12 c-16 -7 -34 -11 -39 -10 -5 2 -40 40 -77 84 -128 150
-178 191 -314 261 -122 63 -129 71 -26 33z m1813 -1 c-7 -20 -341 -188 -352
-177 -15 14 -6 19 169 108 160 81 190 92 183 69z m-2728 -2 c0 -3 -27 -19 -59
-36 -68 -37 -229 -169 -313 -257 -105 -111 -251 -365 -303 -528 -54 -170 -58
-199 -60 -415 -2 -197 -3 -205 -24 -218 -12 -8 -23 -13 -26 -11 -2 3 -10 55
-16 116 -35 311 70 674 271 941 113 151 253 268 435 364 96 51 95 50 95 44z
m2216 -105 c117 -53 152 -224 69 -336 -21 -29 -165 -115 -191 -115 -38 0 -16
24 53 59 83 42 125 78 142 124 16 40 14 123 -3 156 -22 42 -81 89 -121 97 -80
15 -32 36 -922 -422 -100 -52 -189 -94 -197 -94 -54 0 -4 28 695 384 303 154
331 166 380 166 31 0 72 -8 95 -19z m-1798 2 c-13 -3 -18 -16 -20 -46 l-1 -42
-4 40 c-3 22 -10 43 -16 47 -7 4 4 7 23 7 19 -1 27 -3 18 -6z m-241 -75 c-3
-8 -6 -5 -6 6 -1 11 2 17 5 13 3 -3 4 -12 1 -19z m-1057 -65 c0 -3 -16 -33
-35 -67 -19 -35 -35 -67 -35 -72 0 -8 150 -94 164 -94 3 0 15 27 27 60 12 33
28 60 35 60 9 0 4 -19 -16 -62 -25 -55 -27 -65 -14 -78 18 -18 25 -10 54 63
13 31 28 56 33 54 5 -1 8 -7 7 -12 -1 -16 -75 -155 -81 -155 -4 0 -9 9 -12 21
-4 16 -11 19 -26 14 -15 -5 -21 -2 -21 9 0 19 -147 94 -173 88 -17 -3 -17 -1
2 37 12 22 30 65 41 95 15 39 25 53 36 49 7 -3 14 -7 14 -10z m1767 1 c-3 -3
-12 -4 -19 -1 -8 3 -5 6 6 6 11 1 17 -2 13 -5z m-991 -34 c0 -12 -4 -16 -9
-11 -5 5 -6 14 -3 20 10 15 12 14 12 -9z m1011 -12 c-3 -7 -5 -2 -5 12 0 14 2
19 5 13 2 -7 2 -19 0 -25z m1213 -20 c0 -13 -90 -68 -110 -68 -25 0 -5 28 38
52 52 30 72 34 72 16z m-2329 -75 c13 -16 12 -17 -3 -4 -17 13 -22 21 -14 21
2 0 10 -8 17 -17z m2184 -12 c-6 -4 -158 -84 -340 -176 -181 -93 -352 -181
-380 -196 -110 -60 -111 -173 0 -171 18 0 176 74 412 194 337 170 433 211 382
164 -8 -7 -167 -91 -354 -186 -187 -95 -346 -177 -352 -183 -7 -5 -42 -12 -77
-14 -62 -5 -66 -4 -95 25 -54 53 -33 135 46 185 98 62 749 385 757 377 6 -6 6
-13 1 -19z m-2259 -72 c20 -22 23 -28 8 -19 -18 11 -50 50 -41 50 2 0 16 -14
33 -31z m-36 -73 c9 -15 3 -12 -19 8 -17 17 -31 31 -31 33 0 9 39 -23 50 -41z
m2543 -68 c3 -13 17 -68 32 -123 46 -182 59 -286 59 -495 1 -204 -8 -288 -50
-470 -63 -270 -180 -524 -344 -745 -104 -141 -269 -299 -345 -331 -27 -11 -35
-18 -27 -26 8 -8 -6 -23 -51 -55 -111 -79 -175 -113 -272 -148 -52 -19 -129
-52 -172 -75 -81 -42 -99 -47 -105 -28 -3 8 -16 7 -48 -6 -55 -22 -277 -76
-310 -76 l-25 1 25 14 c23 13 16 14 -78 15 -89 0 -212 21 -212 35 0 2 44 1 98
-2 173 -10 404 25 607 92 449 149 828 486 1047 930 137 277 198 545 198 864 0
197 -14 313 -61 499 -24 97 -28 127 -18 138 18 21 46 17 52 -8z m-3230 -2 c40
-16 67 -55 66 -93 l-1 -28 -8 29 c-12 39 -37 64 -70 71 -34 8 -70 -9 -70 -32
0 -12 -3 -14 -11 -6 -20 20 15 63 59 72 1 1 17 -5 35 -13z m3175 -126 c27
-110 46 -220 39 -226 -3 -3 -8 19 -12 48 -6 46 -41 197 -61 262 -4 14 -3 18 4
11 5 -5 19 -48 30 -95z m-1201 64 c3 -9 -65 -45 -632 -334 -402 -204 -430
-221 -455 -270 -23 -45 -27 -138 -7 -173 38 -68 98 -107 167 -107 37 0 127 43
638 306 111 58 202 103 202 101 0 -5 -146 -102 -200 -134 -19 -11 -161 -84
-316 -162 -303 -152 -327 -160 -408 -126 -41 17 -94 72 -113 117 -35 83 -3
205 67 259 19 15 186 103 370 197 184 94 409 209 500 256 160 83 180 90 187
70z m-1990 -55 c43 -17 96 -34 118 -38 36 -6 40 -9 43 -40 l3 -33 -30 21 c-34
24 -79 45 -165 76 -33 12 -62 27 -64 33 -6 18 10 15 95 -19z m518 -49 c3 -6
-1 -7 -9 -4 -18 7 -21 14 -7 14 6 0 13 -4 16 -10z m1600 -165 c25 -53 45 -99
45 -103 -1 -7 -68 -44 -126 -68 -17 -7 -36 -9 -44 -4 -9 6 8 19 58 44 40 20
72 39 72 42 0 3 -18 44 -40 91 -22 47 -40 87 -40 89 0 2 7 4 15 4 10 0 32 -35
60 -95z m585 23 c20 -92 39 -241 40 -309 0 -129 -38 -349 -84 -474 -18 -51
-66 -155 -71 -155 -2 0 6 28 19 63 36 96 84 273 96 360 9 63 8 113 -5 260 -9
100 -23 206 -31 235 -15 54 -13 72 11 72 8 0 18 -21 25 -52z m-2878 -37 c-4
-11 -10 -9 -24 9 -25 31 -22 44 6 23 13 -10 21 -24 18 -32z m228 -37 c69 -7
70 -7 70 -35 0 -16 -1 -29 -3 -29 -2 0 -22 9 -44 20 -39 19 -79 30 -167 48
-22 4 -41 13 -43 19 -3 8 13 8 57 -3 33 -8 92 -17 130 -20z m430 9 c0 -10 -4
-14 -8 -8 -4 6 -11 13 -16 18 -5 4 -2 7 7 7 10 0 17 -8 17 -17z m2757 -35 c-3
-7 -5 -2 -5 12 0 14 2 19 5 13 2 -7 2 -19 0 -25z m-2756 -15 c13 -16 12 -17
-3 -4 -10 7 -18 15 -18 17 0 8 8 3 21 -13z m2634 -57 c27 -12 33 -19 28 -33
-11 -33 -14 -34 -47 -13 -45 27 -75 25 -144 -10 -68 -34 -71 -35 -97 -16 -17
12 -15 13 21 13 28 -1 51 7 84 29 71 49 97 54 155 30z m-585 -40 c0 -2 -9 -6
-20 -9 -11 -3 -18 -1 -14 4 5 9 34 13 34 5z m-2555 -95 c63 -36 143 -106 132
-117 -4 -4 -26 12 -50 35 -73 74 -147 99 -194 66 -31 -22 -36 -60 -17 -122
l17 -55 65 7 c36 4 90 13 120 21 45 12 57 12 64 2 19 -31 7 -35 -104 -40 -69
-3 -113 -9 -116 -16 -2 -6 -9 -9 -15 -7 -45 13 -50 16 -40 26 7 7 6 23 -4 52
-21 59 -12 135 17 159 31 25 67 22 125 -11z m2513 -138 c-10 -2 -26 -2 -35 0
-10 3 -2 5 17 5 19 0 27 -2 18 -5z m-1773 -22 c49 -22 99 -77 115 -127 17 -51
7 -145 -20 -189 -12 -19 -36 -46 -53 -59 -18 -13 -185 -101 -372 -196 -187
-95 -422 -215 -523 -267 -101 -52 -185 -94 -186 -92 -2 2 -15 29 -29 59 -14
30 -39 85 -56 123 -29 61 -34 96 -11 82 8 -5 42 -74 85 -172 10 -24 25 -43 33
-43 8 0 101 44 206 99 105 54 308 158 451 231 368 189 359 184 389 208 63 49
83 148 47 227 -22 48 -44 69 -94 90 -70 29 -93 22 -333 -100 -124 -63 -234
-115 -244 -115 -11 0 -35 -13 -53 -30 -19 -16 -43 -30 -52 -30 -10 0 -51 -18
-91 -40 -40 -22 -81 -40 -91 -40 -36 0 -32 2 461 255 137 70 261 131 275 135
45 14 104 10 146 -9z m2157 -77 c3 -3 -3 -34 -14 -70 -11 -36 -17 -71 -15 -79
6 -14 149 -50 170 -42 9 3 17 28 21 66 4 34 12 61 18 61 10 0 6 -57 -9 -117
-3 -16 0 -25 12 -29 23 -9 31 7 39 77 5 43 11 59 22 59 10 0 14 -6 10 -17 -2
-10 -12 -51 -22 -91 -15 -66 -34 -104 -34 -69 0 18 -27 30 -36 16 -3 -6 -10
-4 -18 6 -12 17 -135 47 -176 43 -28 -3 -27 -11 -8 115 10 69 22 90 40 71z
m-417 -156 c-9 -6 -19 -7 -22 -4 -4 3 -1 6 6 6 7 0 9 4 6 10 -4 6 1 7 11 3 15
-6 15 -7 -1 -15z m-75 -28 c-12 -8 -12 -10 -1 -10 8 0 12 -3 8 -6 -9 -9 -28 6
-22 17 4 5 12 9 18 9 7 0 6 -4 -3 -10z m-2690 -188 c0 -5 -53 -37 -117 -72
-65 -35 -136 -73 -158 -85 -22 -12 -74 -41 -116 -63 -85 -47 -92 -49 -87 -26
2 13 447 252 471 254 4 0 7 -4 7 -8z m2881 -55 c-10 -9 -11 -8 -5 6 3 10 9 15
12 12 3 -3 0 -11 -7 -18z m169 7 c0 -2 -17 -30 -37 -62 -21 -33 -43 -68 -49
-78 -7 -11 -15 -16 -18 -13 -4 4 11 43 34 87 29 58 45 79 55 75 8 -3 15 -7 15
-9z m-455 -14 c10 -11 16 -20 13 -20 -3 0 -13 9 -23 20 -10 11 -16 20 -13 20
3 0 13 -9 23 -20z m-48 -66 c-3 -3 -12 -4 -19 -1 -8 3 -5 6 6 6 11 1 17 -2 13
-5z m540 -57 c29 -21 72 -45 95 -52 45 -13 55 -31 27 -48 -12 -8 -22 -5 -40
12 -13 13 -57 45 -97 73 -40 27 -70 53 -67 59 7 11 13 8 82 -44z m-2238 1 c17
-24 68 -80 113 -126 172 -173 358 -271 633 -333 84 -19 355 -17 465 4 233 44
369 109 590 286 73 58 13 -4 -70 -73 -168 -139 -304 -210 -505 -262 -137 -36
-351 -44 -486 -19 -309 56 -571 210 -759 443 -39 48 -70 90 -70 93 0 6 38 27
52 28 3 1 20 -18 37 -41z m241 19 c0 -2 -12 -14 -27 -28 l-28 -24 24 28 c23
25 31 32 31 24z m1460 -1 c0 -2 -8 -10 -17 -17 -16 -13 -17 -12 -4 4 13 16 21
21 21 13z m-1380 -51 c0 -8 -2 -15 -4 -15 -2 0 -6 7 -10 15 -3 8 -1 15 4 15 6
0 10 -7 10 -15z m20 -89 c0 -3 -4 -8 -10 -11 -5 -3 -10 -1 -10 4 0 6 5 11 10
11 6 0 10 -2 10 -4z m123 -11 c-3 -9 -8 -14 -10 -11 -3 3 -2 9 2 15 9 16 15
13 8 -4z m937 -55 c6 -11 8 -20 6 -20 -3 0 -10 9 -16 20 -6 11 -8 20 -6 20 3
0 10 -9 16 -20z m-308 -55 c-2 -14 -6 -25 -8 -25 -2 0 -4 11 -4 25 0 14 4 25
9 25 4 0 6 -11 3 -25z m-548 -1 c3 -8 2 -12 -4 -9 -6 3 -10 10 -10 16 0 14 7
11 14 -7z m143 -6 c-3 -8 -6 -5 -6 6 -1 11 2 17 5 13 3 -3 4 -12 1 -19z m465
0 c-9 -9 -9 -15 1 -27 10 -14 10 -14 -5 -3 -14 11 -15 17 -5 32 6 11 13 17 16
14 3 -2 -1 -10 -7 -16z m-1676 -70 c268 -385 637 -638 1082 -744 57 -13 118
-32 135 -41 18 -9 61 -27 97 -40 l65 -24 -82 5 c-102 7 -284 46 -420 91 -124
41 -213 84 -391 190 -131 77 -329 253 -443 395 -46 57 -161 221 -157 225 9 7
44 24 50 25 3 0 32 -37 64 -82z m1361 50 c-3 -7 -5 -2 -5 12 0 14 2 19 5 13 2
-7 2 -19 0 -25z m-82 12 c-3 -5 -14 -10 -23 -9 -14 0 -13 2 3 9 27 11 27 11
20 0z m1173 -30 c46 -36 114 -67 169 -76 34 -5 44 -12 52 -34 13 -38 4 -43
-35 -19 l-33 20 -38 -35 c-38 -34 -38 -34 -19 -55 18 -20 18 -23 3 -38 -15
-15 -16 -14 -23 10 -3 15 -13 27 -21 27 -10 0 -13 6 -9 16 4 10 -14 49 -44 99
-45 74 -61 115 -44 115 3 0 22 -13 42 -30z m-1933 -10 c3 -6 -2 -22 -13 -38
-31 -42 -52 -117 -52 -181 0 -52 -2 -59 -26 -70 -35 -16 -45 -6 -28 27 20 38
18 44 -22 83 l-35 34 -19 -25 c-16 -21 -21 -23 -32 -12 -11 11 -9 16 11 31 15
12 21 23 16 31 -6 10 -3 12 12 8 15 -4 40 12 94 58 77 67 84 70 94 54z m929
-6 c3 -8 2 -12 -4 -9 -6 3 -10 10 -10 16 0 14 7 11 14 -7z m707 -157 c-18 -18
-22 -2 -9 34 l13 34 3 -29 c2 -16 -1 -33 -7 -39z m-1376 -60 c-12 -29 -13 -46
-4 -91 14 -68 6 -117 -27 -155 -22 -26 -28 -29 -45 -18 -26 16 -24 23 16 61
35 33 35 34 35 117 0 61 4 91 16 107 22 32 27 22 9 -21z m1475 -173 c24 -43
25 -60 3 -68 -20 -8 -33 10 -33 48 0 16 -16 66 -36 112 -19 46 -32 88 -29 95
4 6 22 -26 41 -71 18 -45 42 -97 54 -116z m561 99 c-25 -46 -175 -183 -187
-171 -2 3 20 23 49 46 30 22 74 63 98 91 48 54 55 60 40 34z m-1782 -26 c-9
-21 -7 -38 15 -104 31 -94 31 -92 5 -148 -23 -49 -26 -51 -53 -30 -18 14 -18
15 9 47 29 34 29 30 9 191 -4 31 -2 53 6 62 18 22 23 12 9 -18z m825 -25 c-26
-77 4 -164 73 -207 43 -27 43 -47 1 -43 -62 6 -117 128 -97 217 10 45 28 86
34 79 2 -2 -2 -23 -11 -46z m-258 -37 c14 -21 15 -32 5 -71 -44 -174 -189
-278 -272 -195 -23 23 -29 38 -29 71 0 126 238 283 296 195z"/>
<path d="M3777 5203 c-2 -5 -16 -29 -31 -55 l-27 -47 31 -16 c18 -9 33 -15 35
-13 8 10 14 138 6 138 -5 0 -12 -3 -14 -7z"/>
<path d="M4322 4908 c-11 -11 -17 -48 -8 -48 16 0 56 21 56 29 0 18 -36 31
-48 19z"/>
<path d="M4210 4841 c-32 -9 -55 -50 -47 -84 8 -29 49 -62 91 -73 l27 -6 -3
83 c-3 91 -8 97 -68 80z"/>
<path d="M4253 2507 c11 -28 57 -97 65 -97 5 0 19 11 31 24 l23 25 -53 28
c-73 38 -73 38 -66 20z"/>
<path d="M2206 2460 c-25 -24 -46 -46 -46 -51 0 -12 49 -43 56 -36 10 9 45
120 40 125 -3 2 -25 -15 -50 -38z"/>
<path d="M3271 2153 c-61 -32 -136 -110 -144 -150 -7 -36 7 -68 37 -88 24 -16
29 -16 71 1 49 18 94 63 123 122 40 79 35 142 -11 142 -13 0 -47 -12 -76 -27z"/>
</g>
</svg>
