<svg xmlns="http://www.w3.org/2000/svg" width="266.529" height="266.535" data-name="dominos pizza"><path fill="#2360a5" d="M133.277 0a9.248 9.248 0 0 0-6.588 2.721L2.722 126.68a9.332 9.332 0 0 0 0 13.176l123.959 123.966a9.355 9.355 0 0 0 13.176 0l123.959-123.966a9.346 9.346 0 0 0 0-13.169L139.857 2.721A9.217 9.217 0 0 0 133.277 0Z" data-name="Path 52127"/><path fill="#fff" d="M262.807 127.696a7.887 7.887 0 0 1 0 11.143L138.85 262.806a7.9 7.9 0 0 1-11.143 0L3.738 138.839a7.9 7.9 0 0 1 0-11.143L127.697 3.73a7.916 7.916 0 0 1 11.143 0Z" data-name="Path 52128"/><path fill="#cf4037" d="m69.1 68.079-59.79 59.79a7.177 7.177 0 0 0 0 10.127l53.026 53.026a7.184 7.184 0 0 0 10.134 0l59.782-59.782L69.1 68.079ZM128.2 8.97l-55.387 55.4 63.16 63.16 55.4-55.4a7.2 7.2 0 0 0 0-10.134L138.344 8.965a7.207 7.207 0 0 0-10.142 0Z" data-name="Path 52129"/><circle cx="15.538" cy="15.538" r="15.538" fill="#fff" data-name="Ellipse 1406" transform="translate(29.235 118.066)"/><circle cx="15.538" cy="15.538" r="15.538" fill="#fff" data-name="Ellipse 1407" transform="translate(74.504 118.739)"/><circle cx="15.538" cy="15.538" r="15.538" fill="#fff" data-name="Ellipse 1408" transform="translate(119.084 51.184)"/><path fill="#2360a5" d="m194.415 75.167-118.9 118.899a7.184 7.184 0 0 0 0 10.134l53.026 53.026a7.184 7.184 0 0 0 10.134 0l118.9-118.9a7.184 7.184 0 0 0 0-10.127l-53.029-53.024a7.177 7.177 0 0 0-10.134-.008Z" data-name="Path 52130"/><path fill="#fff" d="m105.327 221.443-22.37-22.37 6.252-6.252c6.611-6.611 17.28-3.86 23.716 7.8 2.988 5.4 2.66 10.578-1.131 14.368l-6.466 6.458Z" data-name="Path 52131"/><path fill="#2360a5" d="M103.593 202.366c-5.663-6.336-9.233-3.271-9.233-3.271l11.059 11.052c0 .008 2.744-2.652-1.827-7.78Z" data-name="Path 52132"/><path fill="#fff" d="M113.635 197.704c-4.395-4.395-5.037-10.081-1.872-14.353 4.288-5.7 11.434-5.778 16.722-.489 4.914 4.861 5.228 11.25.825 15.645-4.425 4.417-10.789 4.081-15.675-.803Z" data-name="Path 52133"/><path fill="#2360a5" d="M123.41 194.387c1.322.115 1.926-.489 1.819-1.811-.053-1.215-1.23-3.172-3.3-4.907a6 6 0 0 0-3.256-1.651c-1.276-.069-1.888.535-1.811 1.819.061 1.032.864 2.514 2.423 4.074 1.613 1.613 3.1 2.415 4.127 2.476Z" data-name="Path 52134"/><path fill="#fff" d="M177.3 134.04c-4.395-4.395-5.037-10.088-1.872-14.361 4.288-5.7 11.434-5.778 16.722-.489 4.914 4.861 5.228 11.258.825 15.652-4.425 4.418-10.784 4.074-15.675-.8Z" data-name="Path 52135"/><path fill="#2360a5" d="M187.082 130.722c1.322.115 1.926-.489 1.819-1.819-.053-1.215-1.23-3.164-3.3-4.9a5.928 5.928 0 0 0-3.248-1.651c-1.284-.069-1.888.535-1.819 1.819.069 1.039.864 2.514 2.43 4.074 1.6 1.613 3.08 2.408 4.119 2.476Z" data-name="Path 52136"/><path fill="#fff" d="M137.481 189.297 121.82 173.63l5.671-5.67 1.99 1.986a2.676 2.676 0 0 1-.13-.673 6.512 6.512 0 0 1 .772-4.44 6.248 6.248 0 0 1 7.467-2.988c-.015-.229-.787-3.271.527-5.2 2.132-3.118 5.251-3.883 7.949-2.476a5.518 5.518 0 0 1 1.208.78l.092.1 2.27 2.262 9.913 9.913-5.868 5.863-9.07-9.019a1.946 1.946 0 0 0-1.636-.6 1.926 1.926 0 0 0-1.368 2.109 2.66 2.66 0 0 0 .787 1.33l8.706 8.753-5.533 5.533-8.292-8.292c-1.743-1.75-3.378-1.475-3.837-.2a1.939 1.939 0 0 0 .6 2.01l8.983 9.049-5.54 5.537Zm14.345-45.673 15.655 15.66-6.038 6.038-15.662-15.653Zm17.945 13.375-15.66-15.668 5.87-5.862 2.17 2.171v-.054l-.168-.772a5.418 5.418 0 0 1 .94-4.975c2.6-3.967 6.3-3.63 10.807.871l10.157 10.165-5.862 5.862-8.27-8.262c-1.865-1.865-3.179-1.987-3.73-.688-.374.81-.023 1.712 1.773 3.508l7.826 7.826-5.853 5.878Zm35.11-37.779-2.131-5.93c.573-.138.711-.16 1.674-.443 2.553-.81 3.294-1.865 3.149-2.713a1.026 1.026 0 0 0-1.422-.818 2.354 2.354 0 0 0-.673.306l-.42.229-.588.336-.5.313-.558.313c-2.988 1.62-7.077-.138-8.705-4.1-1.559-3.783-.329-7.872 4.838-11.113a14.393 14.393 0 0 1 2.385-1.261l.336-.153.367-.122 2.492 5.969a3.729 3.729 0 0 0-1.559.489 6.054 6.054 0 0 0-1.475.917 4.432 4.432 0 0 0-.611.848.907.907 0 0 0 .581 1.345 1.529 1.529 0 0 0 .917-.115q.171-.069.336-.153l.329-.206 1.85-.971c2.706-1.59 6.03-.81 8.346 2.644 2.385 3.523 1.8 8.208-2.874 11.831a12.993 12.993 0 0 1-5.426 2.446 5.845 5.845 0 0 1-.658.112Z" data-name="Path 52137"/><circle cx="4.731" cy="4.731" r="4.731" fill="#fff" data-name="Ellipse 1409" transform="translate(139.269 136.898)"/><path fill="#fff" d="m139.995 212.195 15.652 15.668-6.038 6.03-15.652-15.668Z" data-name="Path 52138"/><circle cx="4.731" cy="4.731" r="4.731" fill="#fff" data-name="Ellipse 1410" transform="translate(127.445 205.454)"/><path fill="#fff" d="m188.779 114.341 4.5-4.494-6.304-14.075-5.625 5.633Zm-55.433 135.38-22.371-22.37 6.55-6.55c4.945-4.945 10.608-5.4 15.79-.138 6.986 7.085 1.085 13.467.757 13.8l-2.286 2.278 7.268 7.268Z" data-name="Path 52139"/><path fill="#2360a5" d="M127.435 230.592a2.088 2.088 0 0 0 .191-2.866c-1.23-2.064-3.669-3.179-4.914-1.941l-.94.94 4.761 4.761.9-.894Z" data-name="Path 52140"/><path fill="#fff" d="m180.678 175.15-1.7-1.7 5.64-5.64 15.32 15.312-5.64 5.64-1.911-1.912c1.154 2.247.581 5.014-2.27 6.772-2.438 1.582-6.267 1.1-10.41-2.056-5.671-4.364-7.414-10.394-5.625-13.78 1.62-3.011 4.463-3.722 6.6-2.637Z" data-name="Path 52141"/><path fill="#2360a5" d="M188 186.049c1.628-.153 1.4-1.911-.566-4.158-2.2-2.53-4.112-3.5-5.151-3.126a1 1 0 0 0-.6.971c-.046.932.68 2.278 2.323 3.959 1.7 1.7 3.042 2.423 3.99 2.354Z" data-name="Path 52142"/><path fill="#fff" d="m142.479 209.742 12.527-12.527 5.631 16.211 4.219-4.219 4.781 4.792-12.384 12.381-5.847-16.669-4.479 4.479Zm14.358-14.353 12.522-12.527 5.633 16.21 4.219-4.219 4.784 4.783-12.382 12.391-5.854-16.669-4.479 4.478Z" data-name="Path 52143"/><path fill="#2360a5" d="M150.577 260.719a5.052 5.052 0 1 1 1.414 3.645 5.06 5.06 0 0 1-1.414-3.645Z" data-name="Path 52144"/><path fill="#fff" d="M155.617 265.064a4.1 4.1 0 1 0-2.931-1.3 4.081 4.081 0 0 0 2.931 1.3Z" data-name="Path 52145"/><path fill="#2360a5" d="m154.577 263.738-.879-.015.145-5.831 2.216.061c1.383.031 2.048.55 2.025 1.7a1.529 1.529 0 0 1-1.551 1.574l1.6 2.606-.986-.023-1.477-2.562-1.016-.023Z" data-name="Path 52146"/><path fill="#fff" d="M155.719 260.49c.749.015 1.422-.023 1.437-.917.015-.718-.634-.871-1.253-.887l-1.2-.023-.046 1.8Z" data-name="Path 52147"/></svg>