<svg xmlns="http://www.w3.org/2000/svg" xmlns:xlink="http://www.w3.org/1999/xlink" width="396" zoomAndPan="magnify" viewBox="0 0 297 222.749995" height="297" preserveAspectRatio="xMidYMid meet" version="1.0"><defs><g/><clipPath id="id1"><path d="M 0.167969 0 L 296.832031 0 L 296.832031 222.5 L 0.167969 222.5 Z M 0.167969 0 " clip-rule="nonzero"/></clipPath></defs><g clip-path="url(#id1)"><path fill="#ffffff" d="M 0.167969 0 L 296.832031 0 L 296.832031 229.242188 L 0.167969 229.242188 Z M 0.167969 0 " fill-opacity="1" fill-rule="nonzero"/><path fill="#ffffff" d="M 0.167969 0 L 296.832031 0 L 296.832031 222.5 L 0.167969 222.5 Z M 0.167969 0 " fill-opacity="1" fill-rule="nonzero"/><path fill="#ffffff" d="M 0.167969 0 L 296.832031 0 L 296.832031 222.5 L 0.167969 222.5 Z M 0.167969 0 " fill-opacity="1" fill-rule="nonzero"/></g><g fill="#ffffff" fill-opacity="1"><g transform="translate(82.829749, 127.857169)"><g><path d="M 17.722656 0 L 25.328125 0 L 25.328125 -32.820312 L 42.722656 -32.820312 L 42.722656 -38.785156 L 0.328125 -38.785156 L 0.328125 -32.820312 L 17.722656 -32.820312 Z M 17.722656 0 "/></g></g></g><g fill="#ffffff" fill-opacity="1"><g transform="translate(116.003842, 127.853811)"><g><path d="M 0.21875 0 L 8.15625 0 L 12.589844 -8.484375 L 36.890625 -8.484375 L 41.324219 0 L 49.316406 0 L 29.28125 -38.804688 L 20.414062 -38.804688 Z M 14.832031 -13.792969 L 24.738281 -33.277344 L 24.847656 -33.277344 L 34.699219 -13.792969 Z M 14.832031 -13.792969 "/></g></g></g><g fill="#ffffff" fill-opacity="1"><g transform="translate(156.249797, 86.130753)"><g><path d="M 0 2.734375 L 0 10.339844 L 13.402344 10.339844 L 13.402344 30.851562 C 13.402344 40.753906 18.050781 46.277344 25.984375 46.332031 C 34.082031 46.332031 38.785156 40.808594 38.785156 30.90625 L 38.785156 2.734375 Z M 18.652344 10.339844 L 33.480469 10.339844 L 33.480469 28.992188 C 33.480469 35.230469 30.742188 38.730469 26.039062 38.730469 C 21.390625 38.730469 18.652344 35.230469 18.652344 28.992188 Z M 18.652344 10.339844 "/></g></g></g><g fill="#ffffff" fill-opacity="1"><g transform="translate(166.631431, 75.871889)"><g><path d="M -0.328125 7.890625 C -0.328125 6.890625 0.03125 6.03125 0.75 5.3125 C 1.46875 4.59375 2.332031 4.234375 3.34375 4.234375 C 4.34375 4.234375 5.203125 4.59375 5.921875 5.3125 C 6.640625 6.03125 7 6.890625 7 7.890625 C 7 8.898438 6.640625 9.765625 5.921875 10.484375 C 5.203125 11.203125 4.34375 11.5625 3.34375 11.5625 C 2.332031 11.5625 1.46875 11.203125 0.75 10.484375 C 0.03125 9.765625 -0.328125 8.898438 -0.328125 7.890625 Z M 22.671875 7.890625 C 22.671875 6.890625 23.03125 6.03125 23.75 5.3125 C 24.46875 4.59375 25.332031 4.234375 26.34375 4.234375 C 27.34375 4.234375 28.203125 4.59375 28.921875 5.3125 C 29.640625 6.03125 30 6.890625 30 7.890625 C 30 8.898438 29.640625 9.765625 28.921875 10.484375 C 28.203125 11.203125 27.34375 11.5625 26.34375 11.5625 C 25.332031 11.5625 24.46875 11.203125 23.75 10.484375 C 23.03125 9.765625 22.671875 8.898438 22.671875 7.890625 Z M 22.671875 7.890625 "/></g></g></g><g fill="#ffffff" fill-opacity="1"><g transform="translate(166.631431, 92.119278)"><g/></g></g><g fill="#ffffff" fill-opacity="1"><g transform="translate(166.631431, 108.69642)"><g/></g></g></svg>