<svg width="150" height="65" viewBox="0 0 150 65" fill="none" xmlns="http://www.w3.org/2000/svg">
<path d="M23.321 64.1864H33.4721V20.3739H56.6908V12.4155H0.102295V20.3739H23.321V64.1864Z" fill="#2C303C"/>
<path d="M44.2382 64.1818H54.8319L60.7486 52.8589H93.1913L99.108 64.1818H109.775L83.035 12.3798H71.1965L44.2382 64.1818ZM63.7434 45.7704L76.9673 19.76H77.1132L90.2642 45.7704H63.7434Z" fill="#2C303C"/>
<path d="M93 12V21.07H112.504V45.5343C112.504 57.3453 119.272 63.9348 130.809 64C142.591 64 149.439 57.4104 149.439 45.5994V12H93ZM120.146 21.07H141.717V43.3191C141.717 50.7557 137.737 54.93 130.889 54.93C124.127 54.93 120.146 50.7557 120.146 43.3191V21.07Z" fill="#2C303C"/>
<path d="M111.088 5.33651C111.088 3.98755 111.537 2.83651 112.435 1.87817C113.333 0.91984 114.412 0.440674 115.676 0.440674C116.925 0.440674 117.999 0.91984 118.897 1.87817C119.805 2.83651 120.264 3.98755 120.264 5.33651C120.264 6.66984 119.805 7.81567 118.897 8.77401C117.999 9.74276 116.925 10.2323 115.676 10.2323C114.412 10.2323 113.333 9.74276 112.435 8.77401C111.537 7.81567 111.088 6.66984 111.088 5.33651ZM139.825 5.33651C139.825 3.98755 140.274 2.83651 141.172 1.87817C142.07 0.91984 143.148 0.440674 144.412 0.440674C145.662 0.440674 146.735 0.91984 147.633 1.87817C148.541 2.83651 149 3.98755 149 5.33651C149 6.66984 148.541 7.81567 147.633 8.77401C146.735 9.74276 145.662 10.2323 144.412 10.2323C143.148 10.2323 142.07 9.74276 141.172 8.77401C140.274 7.81567 139.825 6.66984 139.825 5.33651Z" fill="#2C303C"/>
</svg>
