<svg width="353" height="162" viewBox="0 0 353 162" fill="none" xmlns="http://www.w3.org/2000/svg">
<path d="M8.58 130.001V69.941C8.58 59.293 11.176 51.021 16.368 45.125C21.648 39.229 29.128 36.281 38.808 36.281C48.576 36.281 56.056 38.657 61.248 43.409C66.528 48.161 69.168 54.849 69.168 63.473C69.168 69.017 67.848 73.549 65.208 77.069C62.568 80.589 58.08 83.361 51.744 85.385V85.913C58.344 88.465 62.744 92.117 64.944 96.869C67.232 101.533 68.376 109.277 68.376 120.101V130.001H55.968V113.105C55.968 106.417 54.076 101.225 50.292 97.529C46.508 93.745 41.052 91.853 33.924 91.853H26.796V80.237H34.32C42.768 80.237 48.62 78.521 51.876 75.089C55.132 71.657 56.76 67.565 56.76 62.813C56.76 58.325 55.132 54.717 51.876 51.989C48.708 49.261 44.484 47.897 39.204 47.897C33.132 47.897 28.556 49.613 25.476 53.045C22.484 56.477 20.988 62.109 20.988 69.941V130.001H8.58ZM114.737 65.321C129.697 65.937 137.177 72.141 137.177 83.933C137.177 98.629 127.541 105.977 108.269 105.977H102.857V95.813H109.193C115.089 95.813 119.181 94.933 121.469 93.173C123.757 91.325 124.901 88.289 124.901 84.065C124.901 81.337 123.889 79.313 121.865 77.993C119.841 76.585 117.245 75.881 114.077 75.881C107.829 75.881 102.901 78.081 99.2929 82.481C95.7729 86.881 94.0129 92.161 94.0129 98.321C94.0129 104.833 95.9049 110.113 99.6889 114.161C103.561 118.209 108.577 120.233 114.737 120.233C120.281 120.233 124.813 118.869 128.333 116.141L136.253 123.929C130.181 128.857 123.009 131.321 114.737 131.321C104.705 131.321 96.6969 128.373 90.7129 122.477C84.7289 116.581 81.7369 108.969 81.7369 99.641C81.7369 89.257 84.6849 80.853 90.5809 74.429C96.4769 68.005 104.529 64.969 114.737 65.321ZM145.741 49.217V37.601H203.821V49.217H180.985V130.001H168.577V49.217H145.741ZM250.316 92.777V104.657C246.972 102.105 242.88 100.829 238.04 100.829C233.904 100.829 230.692 101.665 228.404 103.337C226.116 104.921 224.972 107.209 224.972 110.201C224.972 116.009 229.284 118.913 237.908 118.913H255.332V93.701C255.332 83.053 250.14 77.729 239.756 77.729H218.636V66.641H240.416C248.952 66.641 255.508 68.753 260.084 72.977C264.66 77.201 266.948 83.273 266.948 91.193V130.001H237.512C230.032 130.001 224.092 128.329 219.692 124.985C215.292 121.641 213.092 116.757 213.092 110.333C213.092 103.909 215.424 99.025 220.088 95.681C224.752 92.337 230.604 90.665 237.644 90.665C241.604 90.665 245.828 91.369 250.316 92.777ZM281.459 160.097V98.321C281.459 93.745 282.295 89.433 283.967 85.385C285.639 81.337 287.927 77.861 290.831 74.957C293.735 71.965 297.167 69.633 301.127 67.961C305.087 66.201 309.311 65.321 313.799 65.321C318.287 65.321 322.467 66.201 326.339 67.961C330.299 69.633 333.731 71.965 336.635 74.957C339.627 77.949 341.959 81.469 343.631 85.517C345.303 89.477 346.139 93.745 346.139 98.321C346.139 102.897 345.303 107.209 343.631 111.257C342.047 115.217 339.803 118.693 336.899 121.685C333.995 124.677 330.563 127.053 326.603 128.813C322.643 130.485 318.375 131.321 313.799 131.321C308.167 131.321 302.931 130.001 298.091 127.361V115.481C302.403 118.649 307.507 120.233 313.403 120.233C316.571 120.233 319.431 119.705 321.983 118.649C324.623 117.505 326.823 115.965 328.583 114.029C330.431 112.093 331.839 109.805 332.807 107.165C333.775 104.437 334.259 101.489 334.259 98.321C334.259 95.153 333.775 92.249 332.807 89.609C331.839 86.881 330.475 84.549 328.715 82.613C326.955 80.677 324.799 79.181 322.247 78.125C319.783 76.981 316.967 76.409 313.799 76.409C310.719 76.409 307.903 76.937 305.351 77.993C302.887 79.049 300.731 80.545 298.883 82.481C297.123 84.417 295.759 86.749 294.791 89.477C293.823 92.117 293.339 95.065 293.339 98.321V160.097H281.459Z" fill="#ECF7FF"/>
<path d="M145.988 12.7131L151.966 18.904C165.666 5.63191 187.545 6.01381 200.816 19.7567L207.007 13.7782C190.472 -3.43181 163.156 -3.90862 145.988 12.7131ZM157.987 25.1388L163.965 31.3297C167.264 28.1534 171.687 26.4147 176.266 26.4946C180.845 26.5745 185.205 28.4666 188.39 31.7561L194.581 25.7776C189.811 20.8441 183.278 18.0057 176.416 17.8859C169.555 17.7662 162.926 20.3748 157.987 25.1388Z" fill="white"/>
</svg>
