<svg xmlns="http://www.w3.org/2000/svg" xmlns:xlink="http://www.w3.org/1999/xlink" width="500" zoomAndPan="magnify" viewBox="0 0 375 374.999991" height="500" preserveAspectRatio="xMidYMid meet" version="1.0"><defs><g/></defs><g fill="#2c303c" fill-opacity="1"><g transform="translate(8.481662, 253.116348)"><g><path d="M 55.589844 0 L 79.441406 0 L 79.441406 -102.945312 L 134.003906 -102.945312 L 134.003906 -121.648438 L 1.03125 -121.648438 L 1.03125 -102.945312 L 55.589844 -102.945312 Z M 55.589844 0 "/></g></g></g><g fill="#2c303c" fill-opacity="1"><g transform="translate(112.493529, 253.105771)"><g><path d="M 0.6875 0 L 25.582031 0 L 39.488281 -26.609375 L 115.714844 -26.609375 L 129.621094 0 L 154.6875 0 L 91.851562 -121.722656 L 64.039062 -121.722656 Z M 46.527344 -43.265625 L 77.601562 -104.382812 L 77.945312 -104.382812 L 108.847656 -43.265625 Z M 46.527344 -43.265625 "/></g></g></g><g fill="#2c303c" fill-opacity="1"><g transform="translate(238.136355, 121.625147)"><g><path d="M 0 8.578125 L 0 32.429688 L 42.035156 32.429688 L 42.035156 96.769531 C 42.035156 127.824219 56.621094 145.15625 81.5 145.324219 C 106.894531 145.324219 121.648438 127.996094 121.648438 96.941406 L 121.648438 8.578125 Z M 58.507812 32.429688 L 105.003906 32.429688 L 105.003906 90.9375 C 105.003906 110.496094 96.425781 121.476562 81.671875 121.476562 C 67.085938 121.476562 58.507812 110.496094 58.507812 90.9375 Z M 58.507812 32.429688 "/></g></g></g><g fill="#2c303c" fill-opacity="1"><g transform="translate(270.346883, 89.447747)"><g><path d="M -1.015625 24.765625 C -1.015625 21.617188 0.109375 18.914062 2.359375 16.65625 C 4.617188 14.40625 7.320312 13.28125 10.46875 13.28125 C 13.613281 13.28125 16.316406 14.40625 18.578125 16.65625 C 20.835938 18.914062 21.96875 21.617188 21.96875 24.765625 C 21.96875 27.921875 20.835938 30.625 18.578125 32.875 C 16.316406 35.132812 13.613281 36.265625 10.46875 36.265625 C 7.320312 36.265625 4.617188 35.132812 2.359375 32.875 C 0.109375 30.625 -1.015625 27.921875 -1.015625 24.765625 Z M 71.984375 24.765625 C 71.984375 21.617188 73.109375 18.914062 75.359375 16.65625 C 77.617188 14.40625 80.320312 13.28125 83.46875 13.28125 C 86.613281 13.28125 89.316406 14.40625 91.578125 16.65625 C 93.835938 18.914062 94.96875 21.617188 94.96875 24.765625 C 94.96875 27.921875 93.835938 30.625 91.578125 32.875 C 89.316406 35.132812 86.613281 36.265625 83.46875 36.265625 C 80.320312 36.265625 77.617188 35.132812 75.359375 32.875 C 73.109375 30.625 71.984375 27.921875 71.984375 24.765625 Z M 71.984375 24.765625 "/></g></g></g><g fill="#2c303c" fill-opacity="1"><g transform="translate(270.346883, 140.412587)"><g/></g></g><g fill="#2c303c" fill-opacity="1"><g transform="translate(270.346883, 192.409959)"><g/></g></g></svg>