<svg xmlns="http://www.w3.org/2000/svg" xmlns:xlink="http://www.w3.org/1999/xlink" width="396" zoomAndPan="magnify" viewBox="0 0 297 221.999995" height="296" preserveAspectRatio="xMidYMid meet" version="1.0"><defs><g/></defs><g fill="#2c303c" fill-opacity="1"><g transform="translate(82.998573, 127.639753)"><g><path d="M 17.742188 0 L 25.355469 0 L 25.355469 -32.859375 L 42.769531 -32.859375 L 42.769531 -38.828125 L 0.328125 -38.828125 L 0.328125 -32.859375 L 17.742188 -32.859375 Z M 17.742188 0 "/></g></g></g><g fill="#2c303c" fill-opacity="1"><g transform="translate(116.209895, 127.636391)"><g><path d="M 0.21875 0 L 8.164062 0 L 12.601562 -8.492188 L 36.933594 -8.492188 L 41.371094 0 L 49.371094 0 L 29.316406 -38.851562 L 20.4375 -38.851562 Z M 14.847656 -13.808594 L 24.765625 -33.316406 L 24.875 -33.316406 L 34.738281 -13.808594 Z M 14.847656 -13.808594 "/></g></g></g><g fill="#2c303c" fill-opacity="1"><g transform="translate(156.501015, 85.866506)"><g><path d="M 0 2.738281 L 0 10.351562 L 13.417969 10.351562 L 13.417969 30.886719 C 13.417969 40.800781 18.074219 46.332031 26.011719 46.386719 C 34.117188 46.386719 38.828125 40.855469 38.828125 30.941406 L 38.828125 2.738281 Z M 18.675781 10.351562 L 33.515625 10.351562 L 33.515625 29.027344 C 33.515625 35.269531 30.777344 38.773438 26.066406 38.773438 C 21.414062 38.773438 18.675781 35.269531 18.675781 29.027344 Z M 18.675781 10.351562 "/></g></g></g><g fill="#2c303c" fill-opacity="1"><g transform="translate(166.894315, 75.596129)"><g><path d="M -0.328125 7.90625 C -0.328125 6.894531 0.03125 6.03125 0.75 5.3125 C 1.46875 4.59375 2.332031 4.234375 3.34375 4.234375 C 4.34375 4.234375 5.203125 4.59375 5.921875 5.3125 C 6.648438 6.03125 7.015625 6.894531 7.015625 7.90625 C 7.015625 8.90625 6.648438 9.765625 5.921875 10.484375 C 5.203125 11.210938 4.34375 11.578125 3.34375 11.578125 C 2.332031 11.578125 1.46875 11.210938 0.75 10.484375 C 0.03125 9.765625 -0.328125 8.90625 -0.328125 7.90625 Z M 22.671875 7.90625 C 22.671875 6.894531 23.03125 6.03125 23.75 5.3125 C 24.46875 4.59375 25.332031 4.234375 26.34375 4.234375 C 27.34375 4.234375 28.203125 4.59375 28.921875 5.3125 C 29.648438 6.03125 30.015625 6.894531 30.015625 7.90625 C 30.015625 8.90625 29.648438 9.765625 28.921875 10.484375 C 28.203125 11.210938 27.34375 11.578125 26.34375 11.578125 C 25.332031 11.578125 24.46875 11.210938 23.75 10.484375 C 23.03125 9.765625 22.671875 8.90625 22.671875 7.90625 Z M 22.671875 7.90625 "/></g></g></g><g fill="#2c303c" fill-opacity="1"><g transform="translate(166.894315, 91.861753)"><g/></g></g><g fill="#2c303c" fill-opacity="1"><g transform="translate(166.894315, 108.457499)"><g/></g></g></svg>